<?xml version="1.0" standalone="no"?>
<!DOCTYPE svg PUBLIC "-//W3C//DTD SVG 1.1//EN" "http://www.w3.org/Graphics/SVG/1.1/DTD/svg11.dtd" >
<svg xmlns="http://www.w3.org/2000/svg" xmlns:xlink="http://www.w3.org/1999/xlink" version="1.1">
<metadata>
Created by FontForge 20170731 at Tue Feb  1 14:56:27 2022
 By Aleksey,,,
HTF Gotham Copr. 2003 The Hoefler Type Foundry, Inc. Info: www.typography.com
</metadata>
<defs>
<font id="Gotham-UltraItalic" horiz-adv-x="1024" >
  <font-face 
    font-family="Gotham Ultra"
    font-weight="500"
    font-style="italic"
    font-stretch="normal"
    units-per-em="2048"
    panose-1="0 0 0 0 0 0 0 0 0 0"
    ascent="1638"
    descent="-410"
    x-height="1118"
    cap-height="1434"
    bbox="-315 -354 2816 1915"
    underline-thickness="40"
    underline-position="-312"
    slope="-12"
    unicode-range="U+0020-FB02"
  />
<missing-glyph 
 />
    <glyph glyph-name=".notdef" 
 />
    <glyph glyph-name=".null" horiz-adv-x="0" 
 />
    <glyph glyph-name="nonmarkingreturn" horiz-adv-x="682" 
 />
    <glyph glyph-name="space" unicode=" " horiz-adv-x="520" 
 />
    <glyph glyph-name="exclam" unicode="!" horiz-adv-x="655" 
d="M180 446l39 680l84 308h520l-84 -308l-325 -680h-234zM-59 0l98 369h475l-98 -369h-475z" />
    <glyph glyph-name="quotedbl" unicode="&#x22;" horiz-adv-x="1128" 
d="M639 616l219 818h485v-11l-454 -807h-250zM72 616l219 818h485v-11l-454 -807h-250z" />
    <glyph glyph-name="numbersign" unicode="#" horiz-adv-x="1437" 
d="M74 0l88 246h-170l78 395h231l57 160h-196l78 395h258l84 238h321l-84 -238h223l84 238h322l-84 -238h168l-78 -395h-229l-58 -160h195l-78 -395h-256l-88 -246h-322l89 246h-226l-86 -246h-321zM600 625h256l68 192h-256z" />
    <glyph glyph-name="dollar" unicode="$" horiz-adv-x="1384" 
d="M393 -201l62 219q-308 52 -523 218l246 303q199 -132 387 -166l56 182q-232 64 -338.5 154.5t-106.5 244.5q0 98 45 184.5t128 152.5t211.5 104.5t285.5 38.5h22l33 118h213l-39 -139q246 -48 412 -172l-225 -323q-123 93 -299 137l-50 -168q109 -32 184.5 -65.5
t134.5 -80t87.5 -109t28.5 -143.5q0 -217 -181 -353t-487 -136h-18l-56 -201h-213zM737 926l45 159q-74 6 -113.5 -15.5t-39.5 -59.5q0 -32 24 -50.5t84 -33.5zM748 350q76 -1 113.5 22t37.5 64q0 29 -20.5 48t-81.5 38z" />
    <glyph glyph-name="percent" unicode="%" horiz-adv-x="1978" 
d="M522 645q-177 0 -272.5 98t-95.5 252q0 87 31.5 169.5t86.5 147.5t137.5 104.5t176.5 39.5q177 0 272.5 -98t95.5 -252q0 -87 -31.5 -169.5t-86.5 -147.5t-137.5 -104.5t-176.5 -39.5zM154 0l1445 1434h310l-1446 -1434h-309zM1477 -23q-177 0 -273 98.5t-96 252.5
q0 87 31.5 169.5t86.5 147t137.5 104t176.5 39.5q177 0 273 -98t96 -252q0 -87 -31.5 -169.5t-86.5 -147.5t-137.5 -104.5t-176.5 -39.5zM530 893q65 0 107.5 60.5t42.5 140.5q0 49 -28 81.5t-74 32.5q-65 0 -107.5 -60t-42.5 -140q0 -49 28 -82t74 -33zM1485 225
q65 0 107 60.5t42 140.5q0 49 -28 82t-74 33q-65 0 -107.5 -60.5t-42.5 -140.5q0 -49 28.5 -82t74.5 -33z" />
    <glyph glyph-name="ampersand" unicode="&#x26;" horiz-adv-x="1439" 
d="M1061 -29l-84 125q-209 -121 -440 -121q-252 0 -391.5 109.5t-139.5 296.5q0 324 420 463q-55 113 -55 225q0 170 125.5 281.5t326.5 111.5q200 0 326.5 -108t126.5 -273q0 -263 -322 -389l90 -125q61 70 121 148l271 -189q-73 -113 -176 -219l92 -129zM774 915
q150 63 150 158q0 44 -24 69t-62 25q-43 0 -71 -34t-28 -86q0 -67 35 -132zM602 307q76 0 160 47l-170 250q-135 -64 -135 -180q0 -53 39.5 -85t105.5 -32z" />
    <glyph glyph-name="quotesingle" unicode="'" horiz-adv-x="571" 
d="M72 616l219 818h495v-11l-454 -807h-260z" />
    <glyph glyph-name="parenleft" unicode="(" horiz-adv-x="952" 
d="M496 -293q-211 153 -320.5 337t-109.5 415q0 193 70.5 361.5t192.5 292.5t277.5 212t335.5 135l117 -297q-142 -60 -251 -141.5t-174.5 -172.5t-98.5 -186t-33 -192q0 -135 54.5 -250.5t186.5 -261.5z" />
    <glyph glyph-name="parenright" unicode=")" horiz-adv-x="952" 
d="M23 -289l-117 297q142 60 251 141.5t174.5 172.5t98.5 186t33 192q0 135 -55 250.5t-187 261.5l248 252q211 -153 320.5 -336.5t109.5 -414.5q0 -193 -70.5 -362t-192.5 -293t-277.5 -212t-335.5 -135z" />
    <glyph glyph-name="asterisk" unicode="*" horiz-adv-x="903" 
d="M598 596l-254 68l143 268l-268 -146l-72 261l306 8l-260 162l192 186l160 -258l8 303l254 -68l-143 -268l268 145l72 -260l-306 -8l260 -162l-192 -186l-160 258z" />
    <glyph glyph-name="plus" unicode="+" horiz-adv-x="1331" 
d="M354 182l90 336h-319l108 406h320l90 336h422l-90 -336h319l-108 -406h-320l-90 -336h-422z" />
    <glyph glyph-name="comma" unicode="," horiz-adv-x="583" 
d="M-164 -344l-12 170q225 26 268 182h-186l127 471h475l-111 -413q-28 -100 -66.5 -169t-102.5 -123t-160.5 -82.5t-231.5 -35.5z" />
    <glyph glyph-name="hyphen" unicode="-" horiz-adv-x="864" 
d="M47 455l103 381h712l-102 -381h-713z" />
    <glyph glyph-name="period" unicode="." horiz-adv-x="583" 
d="M-96 0l127 471h475l-127 -471h-475z" />
    <glyph glyph-name="slash" unicode="/" horiz-adv-x="1105" 
d="M-315 -262l1398 1896h383l-1398 -1896h-383z" />
    <glyph glyph-name="zero" unicode="0" horiz-adv-x="1478" 
d="M668 -33q-138 0 -251.5 46t-186.5 124.5t-112.5 180.5t-39.5 217q0 146 39 285t112.5 255t172.5 203.5t226.5 136.5t266.5 49q138 0 251.5 -46t186.5 -124t112.5 -180t39.5 -217q0 -183 -61.5 -352.5t-168 -297t-260 -204t-327.5 -76.5zM711 383q66 0 123 45t93 115
t56.5 151.5t20.5 159.5q0 97 -42.5 146t-109.5 49q-66 0 -123 -45t-93 -115t-56.5 -151.5t-20.5 -159.5q0 -97 42.5 -146t109.5 -49z" />
    <glyph glyph-name="one" unicode="1" horiz-adv-x="872" 
d="M150 0l270 1010l-219 -56l-13 373l459 117h361l-387 -1444h-471z" />
    <glyph glyph-name="two" unicode="2" horiz-adv-x="1310" 
d="M-72 0l97 356l733 451q77 47 101 84t24 76q0 40 -25.5 64t-75.5 24q-60 0 -142.5 -48.5t-166.5 -129.5l-270 284q131 141 285.5 219t353.5 78q240 0 378 -117t138 -307q0 -69 -19.5 -130t-65 -125.5t-127.5 -129.5t-202 -131l-260 -143h541l-101 -375h-1196z" />
    <glyph glyph-name="three" unicode="3" horiz-adv-x="1263" 
d="M553 -31q-404 0 -616 279l305 272q124 -155 297 -155q95 0 153 41t58 98q0 46 -38.5 70t-131.5 24h-183l-6 213l383 250h-532l100 373h1102l-90 -330l-416 -260q134 -41 206.5 -131t72.5 -209q0 -250 -180 -392.5t-484 -142.5z" />
    <glyph glyph-name="four" unicode="4" horiz-adv-x="1429" 
d="M637 0l65 248h-649l-55 348l958 848h533l-229 -858h172l-93 -338h-170l-67 -248h-465zM481 580h312l96 360z" />
    <glyph glyph-name="five" unicode="5" horiz-adv-x="1257" 
d="M557 -29q-188 0 -356.5 73t-272.5 177l279 281q158 -146 346 -146q99 0 156 46.5t57 119.5q0 55 -42 90t-122 35q-111 0 -211 -74l-244 152l230 709h1024l-103 -379h-667l-49 -152q101 39 219 39q200 0 319 -104.5t119 -282.5q0 -260 -187.5 -422t-494.5 -162z" />
    <glyph glyph-name="six" unicode="6" horiz-adv-x="1359" 
d="M657 -29q-133 0 -243.5 41t-184.5 115q-149 149 -149 385q0 192 72.5 382t209.5 327q241 241 605 241q299 0 481 -147l-213 -330q-57 49 -132 80t-142 31q-166 0 -281 -115q-59 -59 -94 -143q140 104 325 104q162 0 274.5 -102.5t112.5 -274.5q0 -167 -86.5 -303.5
t-233.5 -213.5t-321 -77zM655 307q77 0 130 62.5t53 144.5q0 56 -37 93.5t-96 37.5q-77 0 -130 -62.5t-53 -144.5q0 -57 35 -92q39 -39 98 -39z" />
    <glyph glyph-name="seven" unicode="7" horiz-adv-x="1265" 
d="M-35 0l840 1038h-635l106 396h1176l-98 -361l-850 -1073h-539z" />
    <glyph glyph-name="eight" unicode="8" horiz-adv-x="1363" 
d="M635 -20q-166 0 -302 47t-218 138.5t-82 211.5q0 140 86 241t248 148q-138 98 -138 262q0 82 40 157.5t114 136t191.5 96.5t259.5 36q247 0 398.5 -114t151.5 -281q0 -126 -79 -215.5t-222 -134.5q203 -93 203 -287q0 -197 -181.5 -319.5t-469.5 -122.5zM780 854
q66 0 116 42t50 105q0 60 -44.5 93.5t-100.5 33.5q-66 0 -115 -42t-49 -105q0 -60 44 -93.5t99 -33.5zM664 309q69 0 120.5 44t51.5 110q0 63 -46.5 98t-105.5 35q-70 0 -122 -44t-52 -110q0 -63 47.5 -98t106.5 -35z" />
    <glyph glyph-name="nine" unicode="9" horiz-adv-x="1359" 
d="M477 -27q-298 0 -481 148l213 330q57 -49 132 -80t142 -31q166 0 281 115q59 59 94 143q-140 -104 -326 -104q-162 0 -274.5 102t-112.5 274q0 167 86.5 303.5t233.5 213.5t321 77q134 0 244 -40.5t184 -114.5q150 -150 150 -385q0 -191 -73 -381.5t-210 -327.5
q-242 -242 -604 -242zM739 791q78 0 130.5 62t52.5 144q0 58 -35 93q-38 38 -99 38q-77 0 -129.5 -62t-52.5 -144q0 -56 37 -93.5t96 -37.5z" />
    <glyph glyph-name="colon" unicode=":" horiz-adv-x="604" 
d="M86 647l127 471h475l-127 -471h-475zM-86 0l127 471h475l-127 -471h-475z" />
    <glyph glyph-name="semicolon" unicode=";" horiz-adv-x="604" 
d="M86 647l127 471h475l-127 -471h-475zM-156 -352l-12 170q225 26 268 182h-186l127 471h475l-110 -414q-28 -100 -66.5 -169t-103 -122.5t-161 -82t-231.5 -35.5z" />
    <glyph glyph-name="less" unicode="&#x3c;" horiz-adv-x="1327" 
d="M1077 123l-944 377l119 438l1145 377l-123 -453l-690 -164l604 -163z" />
    <glyph glyph-name="equal" unicode="=" horiz-adv-x="1306" 
d="M199 805l108 401h1041l-109 -401h-1040zM47 236l107 401h1040l-107 -401h-1040z" />
    <glyph glyph-name="greater" unicode="&#x3e;" horiz-adv-x="1327" 
d="M16 123l123 452l690 164l-604 164l111 412l944 -377l-119 -438z" />
    <glyph glyph-name="question" unicode="?" horiz-adv-x="1099" 
d="M328 446l30 357l27 22q170 17 252 53.5t82 96.5q0 35 -26 55.5t-77 20.5q-121 0 -262 -101l-155 346q219 160 510 160q214 0 342.5 -104t128.5 -271q0 -85 -28.5 -159t-87 -137.5t-158 -109t-232.5 -67.5l-64 -162h-282zM98 0l101 369h475l-101 -369h-475z" />
    <glyph glyph-name="at" unicode="@" horiz-adv-x="1945" 
d="M930 -315q-251 0 -443.5 98.5t-298.5 279t-106 416.5q0 198 77 379t209.5 314.5t321.5 212.5t402 79q192 0 347.5 -53.5t257.5 -147.5t157 -222t55 -277q0 -135 -30 -247.5t-80 -188.5t-116.5 -128.5t-138.5 -76t-147 -23.5q-116 0 -203.5 50.5t-134.5 130.5
q-143 -170 -324 -170q-130 0 -217.5 99t-87.5 259q0 168 65 309.5t177 223t246 81.5q93 0 157.5 -42.5t100.5 -108.5l49 147l370 -102l-165 -526q-27 -86 2 -138.5t116 -52.5q45 0 93 34.5t89.5 96.5t68 163t26.5 220q0 129 -49 239.5t-140.5 192.5t-231.5 129t-312 47
q-197 0 -370.5 -72.5t-294.5 -195t-191 -288t-70 -347.5q0 -213 95.5 -374.5t269.5 -249.5t401 -88q114 0 211 21t209 69l32 -76q-212 -96 -454 -96zM940 442q71 0 118.5 58t47.5 141q0 49 -31.5 80t-79.5 31q-72 0 -119 -58.5t-47 -140.5q0 -49 30.5 -80t80.5 -31z" />
    <glyph glyph-name="A" unicode="A" horiz-adv-x="1605" 
d="M-184 0l991 1444h475l217 -1444h-510l-24 193h-502l-125 -193h-522zM676 532h262l-39 349z" />
    <glyph glyph-name="B" unicode="B" horiz-adv-x="1458" 
d="M-72 0l385 1434h635q547 0 547 -338q0 -133 -87.5 -234t-248.5 -143q105 -27 169.5 -101.5t64.5 -181.5q0 -94 -38.5 -171t-118 -137.5t-214 -94t-313.5 -33.5h-781zM629 870h221q87 0 132.5 33.5t45.5 83.5q0 44 -35 64t-112 20h-199zM492 362h231q86 0 136 34t50 89
q0 90 -153 90h-207z" />
    <glyph glyph-name="C" unicode="C" horiz-adv-x="1488" 
d="M752 -31q-303 0 -491.5 171.5t-188.5 457.5q0 120 35.5 240.5t111 233.5t181.5 200t259 139.5t332 52.5q230 0 386.5 -112.5t201.5 -304.5l-428 -187q-23 86 -81 130t-142 44q-103 0 -186 -57.5t-126 -146.5t-43 -189q0 -115 63.5 -180.5t162.5 -65.5q156 0 278 150
l332 -262q-239 -314 -657 -314z" />
    <glyph glyph-name="D" unicode="D" horiz-adv-x="1527" 
d="M-72 0l385 1434h508q376 0 561 -185q156 -156 156 -420q0 -330 -235 -565q-264 -264 -752 -264h-623zM520 418h84q108 0 198 30.5t146 86.5q45 45 74 111.5t29 131.5q0 106 -60 166q-72 72 -231 72h-80z" />
    <glyph glyph-name="E" unicode="E" horiz-adv-x="1378" 
d="M-72 0l385 1434h1223l-106 -394h-752l-39 -145h700l-92 -346h-700l-43 -156h762l-105 -393h-1233z" />
    <glyph glyph-name="F" unicode="F" horiz-adv-x="1312" 
d="M-72 0l385 1434h1200l-110 -410h-721l-49 -182h670l-101 -373h-670l-124 -469h-480z" />
    <glyph glyph-name="G" unicode="G" horiz-adv-x="1523" 
d="M778 -31q-109 0 -210.5 22.5t-192.5 73t-158.5 123.5t-107 181t-39.5 239q0 175 67.5 331.5t188 272.5t299.5 184t391 68q192 0 356.5 -70t243.5 -167l-299 -307q-63 59 -151 94t-181 35q-198 0 -316 -119.5t-118 -298.5q0 -128 79.5 -197t198.5 -69q73 0 125 22l47 154
h-235l78 307h690l-205 -731q-111 -66 -256.5 -107t-294.5 -41z" />
    <glyph glyph-name="H" unicode="H" horiz-adv-x="1552" 
d="M-72 0l385 1434h480l-138 -506h439l137 506h479l-385 -1434h-479l137 514h-438l-137 -514h-480z" />
    <glyph glyph-name="I" unicode="I" horiz-adv-x="643" 
d="M-68 0l385 1434h480l-385 -1434h-480z" />
    <glyph glyph-name="J" unicode="J" horiz-adv-x="1150" 
d="M420 -29q-162 0 -296.5 70t-209.5 192l315 277q48 -73 96 -104t105 -31q66 0 115 49q51 51 92 199l219 811h467l-238 -887q-75 -276 -215 -416q-160 -160 -450 -160z" />
    <glyph glyph-name="K" unicode="K" horiz-adv-x="1470" 
d="M-72 0l385 1434h480l-140 -514l477 514h584l-653 -656l299 -778h-510l-172 461l-201 -201l-69 -260h-480z" />
    <glyph glyph-name="L" unicode="L" horiz-adv-x="1247" 
d="M-72 0l385 1434h480l-275 -1024h653l-110 -410h-1133z" />
    <glyph glyph-name="M" unicode="M" horiz-adv-x="1769" 
d="M-72 0l385 1434h473l172 -504l443 504h526l-385 -1434h-477l190 711l-467 -510h-8l-192 510l-191 -711h-469z" />
    <glyph glyph-name="N" unicode="N" horiz-adv-x="1589" 
d="M-72 0l385 1434h449l325 -684l185 684h475l-385 -1434h-426l-340 713l-193 -713h-475z" />
    <glyph glyph-name="O" unicode="O" horiz-adv-x="1628" 
d="M791 -29q-155 0 -289 50t-226.5 137t-145 207t-52.5 256q0 165 65 318.5t176 268.5t269 184.5t334 69.5q155 0 288.5 -50t226 -136.5t145 -206.5t52.5 -256q0 -165 -65 -318.5t-175.5 -269t-268.5 -185t-334 -69.5zM823 393q73 0 136 33.5t104.5 87.5t65.5 121t24 135
q0 118 -69.5 194t-194.5 76q-96 0 -173.5 -57t-117 -142t-39.5 -177q0 -119 69.5 -195t194.5 -76z" />
    <glyph glyph-name="P" unicode="P" horiz-adv-x="1361" 
d="M-72 0l385 1434h482q196 0 323.5 -38.5t208.5 -119.5q113 -113 113 -289q0 -272 -193.5 -435t-531.5 -163h-203l-104 -389h-480zM604 731h86q131 0 198.5 52.5t67.5 138.5q0 50 -34 84q-45 45 -144 45h-90z" />
    <glyph glyph-name="Q" unicode="Q" horiz-adv-x="1628" 
d="M1204 -94l-90 133q-158 -68 -323 -68q-155 0 -289 50t-226.5 137t-145 207t-52.5 256q0 165 65 318.5t176 268.5t269 184.5t334 69.5q155 0 288.5 -50t226 -136.5t145 -206.5t52.5 -256q0 -155 -60 -301.5t-167 -263.5l104 -142zM819 377h25l-131 176l307 201l102 -152
q31 79 31 160q0 124 -69.5 201t-194.5 77q-74 0 -138 -33.5t-106 -88.5t-66 -123.5t-24 -139.5q0 -124 69.5 -201t194.5 -77z" />
    <glyph glyph-name="R" unicode="R" horiz-adv-x="1460" 
d="M-72 0l385 1434h559q375 0 529 -154q112 -112 112 -299q0 -86 -23 -161t-70 -141t-124.5 -118t-181.5 -84l199 -477h-516l-160 410h-119l-110 -410h-480zM608 752h174q116 0 180 46t64 117q0 45 -31 76q-41 41 -141 41h-170z" />
    <glyph glyph-name="S" unicode="S" horiz-adv-x="1337" 
d="M633 -29q-208 0 -390.5 69t-316.5 191l275 328q243 -203 483 -203q47 0 75.5 17t28.5 47q0 24 -17 40t-61.5 35.5t-156.5 61.5q-210 77 -300.5 164.5t-90.5 239.5q0 103 46.5 194.5t129 159.5t204.5 107.5t265 39.5q189 0 354.5 -57t284.5 -158l-275 -327
q-87 71 -196 115t-217 44q-105 0 -105 -57q0 -30 33.5 -47t196.5 -78q98 -36 166.5 -72t123.5 -84.5t82 -112t27 -143.5q0 -109 -44 -202.5t-125.5 -163t-205 -109t-274.5 -39.5z" />
    <glyph glyph-name="T" unicode="T" horiz-adv-x="1372" 
d="M295 0l276 1028h-421l108 406h1323l-108 -406h-422l-277 -1028h-479z" />
    <glyph glyph-name="U" unicode="U" horiz-adv-x="1548" 
d="M698 -29q-300 0 -460 135.5t-160 380.5q0 111 31 232l192 715h487l-200 -746q-17 -70 -17 -113q0 -89 50.5 -134.5t146.5 -45.5q94 0 154 60q61 61 102 209l207 770h487l-227 -844q-75 -280 -225 -430q-189 -189 -568 -189z" />
    <glyph glyph-name="V" unicode="V" horiz-adv-x="1544" 
d="M387 -10l-194 1444h526l61 -805l496 805h539l-969 -1444h-459z" />
    <glyph glyph-name="W" unicode="W" horiz-adv-x="2244" 
d="M297 -10l-82 1444h492l18 -689l416 693h413l48 -693l387 689h503l-856 -1444h-417l-62 712l-442 -712h-418z" />
    <glyph glyph-name="X" unicode="X" horiz-adv-x="1484" 
d="M-201 0l705 754l-289 680h518l133 -349l310 349h555l-656 -701l314 -733h-519l-153 406l-363 -406h-555z" />
    <glyph glyph-name="Y" unicode="Y" horiz-adv-x="1441" 
d="M307 0l146 547l-281 887h504l117 -480l372 480h568l-815 -947l-132 -487h-479z" />
    <glyph glyph-name="Z" unicode="Z" horiz-adv-x="1378" 
d="M-109 0l91 336l817 704h-604l106 394h1272l-90 -336l-819 -705h628l-104 -393h-1297z" />
    <glyph glyph-name="bracketleft" unicode="[" horiz-adv-x="964" 
d="M-86 -266l457 1700h753l-77 -285h-359l-303 -1131h358l-75 -284h-754z" />
    <glyph glyph-name="backslash" unicode="\" horiz-adv-x="1105" 
d="M627 -262l-420 1896h366l420 -1896h-366z" />
    <glyph glyph-name="bracketright" unicode="]" horiz-adv-x="964" 
d="M-147 -266l77 284h359l303 1131h-359l76 285h754l-457 -1700h-753z" />
    <glyph glyph-name="asciicircum" unicode="^" 
d="M190 1010l400 420h311l174 -420h-299l-82 157l-168 -157h-336z" />
    <glyph glyph-name="underscore" unicode="_" horiz-adv-x="1228" 
d="M-242 -328l64 238h1237l-64 -238h-1237z" />
    <glyph glyph-name="grave" unicode="`" 
d="M657 1188l-262 276l459 117l90 -393h-287z" />
    <glyph glyph-name="a" unicode="a" horiz-adv-x="1239" 
d="M289 -25q-132 0 -215.5 82t-83.5 224q0 179 132.5 284t366.5 105q130 0 254 -37l5 12q8 28 8 55q0 109 -172 109q-77 0 -162.5 -13.5t-142.5 -35.5l-62 315q196 60 461 60q271 0 407 -96.5t136 -268.5q0 -74 -21 -156l-164 -614h-465l31 113q-84 -71 -153.5 -104.5
t-159.5 -33.5zM514 240q56 0 108 51.5t72 128.5l13 47q-46 12 -86 12q-88 0 -135.5 -39.5t-47.5 -111.5q0 -41 21.5 -64.5t54.5 -23.5z" />
    <glyph glyph-name="b" unicode="b" horiz-adv-x="1374" 
d="M754 -27q-219 0 -328 170l-39 -143h-465l400 1495h464l-131 -491q62 63 147.5 102t172.5 39q155 0 260.5 -118t105.5 -318q0 -150 -46 -286.5t-124 -235t-187 -156.5t-230 -58zM659 354q93 0 156.5 75.5t63.5 176.5q0 71 -42.5 115.5t-107.5 44.5q-93 0 -156 -75.5
t-63 -176.5q0 -71 42 -115.5t107 -44.5z" />
    <glyph glyph-name="c" unicode="c" horiz-adv-x="1157" 
d="M553 -29q-150 0 -268 56t-187 165.5t-69 256.5q0 114 34 220t96.5 191t146.5 149t189.5 99t219.5 35q197 0 325.5 -101.5t161.5 -263.5l-368 -147q-31 135 -144 135q-95 0 -157 -86t-62 -193q0 -62 35.5 -99.5t91.5 -37.5q48 0 87.5 22.5t82.5 71.5l313 -208
q-184 -265 -528 -265z" />
    <glyph glyph-name="d" unicode="d" horiz-adv-x="1374" 
d="M399 -27q-155 0 -260.5 118.5t-105.5 318.5q0 201 78 370t213.5 267t296.5 98q218 0 327 -170l139 520h465l-399 -1495h-465l31 115q-62 -64 -147.5 -103t-172.5 -39zM645 352q93 0 156 75.5t63 176.5q0 71 -42 115.5t-107 44.5q-93 0 -156 -75.5t-63 -176.5
q0 -71 42 -115.5t107 -44.5z" />
    <glyph glyph-name="e" unicode="e" horiz-adv-x="1220" 
d="M453 451q5 -69 48.5 -109.5t119.5 -40.5q106 0 225 90l215 -235q-206 -183 -479 -183q-253 0 -401 135t-148 357q0 128 47 249.5t132 217.5t216 154.5t285 58.5q107 0 192.5 -28t140.5 -74.5t91.5 -110.5t51.5 -131.5t15 -141.5q0 -104 -33 -208h-718zM481 655h316
q8 21 8 50q0 48 -33 83t-88 35q-60 0 -116.5 -40.5t-86.5 -127.5z" />
    <glyph glyph-name="f" unicode="f" horiz-adv-x="868" 
d="M8 0l203 760h-131l96 358h131q56 211 175 301t327 90q147 0 283 -41l-78 -288q-64 22 -127 22q-56 0 -84.5 -20.5t-40.5 -67.5l-2 -8h235l-92 -346h-227l-203 -760h-465z" />
    <glyph glyph-name="g" unicode="g" horiz-adv-x="1361" 
d="M463 -332q-151 0 -314.5 43t-271.5 109l184 270q95 -54 198 -81t192 -27q146 0 223 77q57 57 82 158l4 16q-137 -127 -330 -127q-72 0 -139 25.5t-121.5 72.5t-87.5 121t-33 164q0 122 38.5 238t108.5 209.5t178 150t236 56.5q108 0 197 -47t141 -123l39 145h465
l-235 -878q-72 -269 -203 -400q-89 -89 -221.5 -130.5t-329.5 -41.5zM651 418q91 0 147 67t56 154q0 62 -42 105.5t-112 43.5q-90 0 -146 -66.5t-56 -156.5q0 -62 41.5 -104.5t111.5 -42.5z" />
    <glyph glyph-name="h" unicode="h" horiz-adv-x="1312" 
d="M-78 0l402 1495h464l-139 -516q60 73 147.5 119.5t186.5 46.5q152 0 236 -91.5t84 -250.5q0 -87 -27 -189l-164 -614h-465l150 557q12 44 12 84q0 46 -24.5 72t-73.5 26q-67 0 -108 -44.5t-66 -137.5l-150 -557h-465z" />
    <glyph glyph-name="i" unicode="i" horiz-adv-x="616" 
d="M240 1198l79 297h482l-80 -297h-481zM-74 0l299 1118h465l-299 -1118h-465z" />
    <glyph glyph-name="j" unicode="j" horiz-adv-x="622" 
d="M246 1198l80 297h481l-80 -297h-481zM-123 -334q-67 0 -162 15l72 268h20q69 0 99.5 33t58.5 137l266 999h465l-284 -1061q-32 -116 -76.5 -191.5t-111 -120t-148.5 -62t-199 -17.5z" />
    <glyph glyph-name="k" unicode="k" horiz-adv-x="1243" 
d="M-78 0l402 1495h464l-186 -690l299 313h531l-490 -479l197 -639h-484l-84 324l-133 -134l-51 -190h-465z" />
    <glyph glyph-name="l" unicode="l" horiz-adv-x="616" 
d="M-74 0l402 1495h465l-402 -1495h-465z" />
    <glyph glyph-name="m" unicode="m" horiz-adv-x="2021" 
d="M-78 0l299 1118h465l-35 -131q61 69 145.5 113.5t182.5 44.5q110 0 183 -50t106 -134q175 184 409 184q165 0 250.5 -90t85.5 -248q0 -87 -28 -193l-164 -614h-465l149 557q13 47 13 84q0 98 -95 98q-63 0 -104 -44.5t-66 -137.5l-149 -557h-465l149 557q13 47 13 84
q0 98 -94 98q-63 0 -104 -44.5t-66 -137.5l-150 -557h-465z" />
    <glyph glyph-name="n" unicode="n" horiz-adv-x="1312" 
d="M-78 0l299 1118h465l-37 -139q60 73 147.5 119.5t186.5 46.5q152 0 236 -91.5t84 -250.5q0 -87 -27 -189l-164 -614h-465l150 557q12 44 12 84q0 46 -24.5 72t-73.5 26q-67 0 -108 -44.5t-66 -137.5l-150 -557h-465z" />
    <glyph glyph-name="o" unicode="o" horiz-adv-x="1302" 
d="M596 -27q-129 0 -235.5 40.5t-176.5 111t-108.5 165.5t-38.5 204q0 127 50.5 245.5t138 208t213.5 143.5t268 54q129 0 235.5 -40.5t176.5 -110.5t108.5 -165t38.5 -204q0 -127 -50.5 -246t-138 -208.5t-213.5 -143.5t-268 -54zM625 352q86 0 144 75t58 177
q0 71 -41 116.5t-108 45.5q-86 0 -144.5 -75t-58.5 -177q0 -71 41.5 -116.5t108.5 -45.5z" />
    <glyph glyph-name="p" unicode="p" horiz-adv-x="1374" 
d="M-166 -328l387 1446h465l-31 -114q62 63 147.5 102t172.5 39q155 0 260.5 -118t105.5 -318q0 -150 -46 -286.5t-124 -235t-187 -156.5t-230 -58q-219 0 -328 170l-127 -471h-465zM659 354q93 0 156.5 75.5t63.5 176.5q0 71 -42.5 115.5t-107.5 44.5q-93 0 -156 -75.5
t-63 -176.5q0 -71 42 -115.5t107 -44.5z" />
    <glyph glyph-name="q" unicode="q" horiz-adv-x="1374" 
d="M600 -328l119 443q-62 -64 -147.5 -103t-172.5 -39q-155 0 -260.5 118.5t-105.5 318.5q0 201 78 370t213.5 267t296.5 98q218 0 327 -170l39 143h465l-387 -1446h-465zM645 352q93 0 156 75.5t63 176.5q0 71 -42 115.5t-107 44.5q-93 0 -156 -75.5t-63 -176.5
q0 -71 42 -115.5t107 -44.5z" />
    <glyph glyph-name="r" unicode="r" horiz-adv-x="903" 
d="M-78 0l299 1118h465l-59 -225q173 253 413 242l-131 -494h-49q-162 0 -256.5 -87.5t-142.5 -274.5l-74 -279h-465z" />
    <glyph glyph-name="s" unicode="s" horiz-adv-x="1069" 
d="M496 -27q-180 0 -333.5 51.5t-264.5 135.5l204 266q77 -62 193 -107t209 -45q33 0 49 11t16 28q0 27 -34 47.5t-140 59.5q-151 55 -228 127.5t-77 195.5q0 174 140 288t384 114q161 0 300 -43t229 -111l-205 -266q-70 48 -165.5 83.5t-174.5 35.5q-74 0 -74 -37
q0 -23 28.5 -38.5t133.5 -53.5q59 -21 102 -40.5t86 -49t70 -63t43.5 -81t16.5 -104.5q0 -58 -16 -113.5t-54.5 -109t-95.5 -93t-145 -64t-197 -24.5z" />
    <glyph glyph-name="t" unicode="t" horiz-adv-x="909" 
d="M481 -25q-389 0 -389 306q0 61 23 155l86 324h-131l96 358h131l76 281h465l-76 -281h258l-96 -358h-258l-64 -240q-14 -52 -14 -86q0 -72 94 -72q43 0 135 25l-100 -379q-132 -33 -236 -33z" />
    <glyph glyph-name="u" unicode="u" horiz-adv-x="1312" 
d="M342 -27q-152 0 -235.5 91.5t-83.5 250.5q0 91 26 189l164 614h465l-150 -557q-12 -43 -12 -84q0 -46 24.5 -72t73.5 -26q67 0 108 44.5t66 137.5l150 557h465l-299 -1118h-465l37 139q-60 -73 -147.5 -119.5t-186.5 -46.5z" />
    <glyph glyph-name="v" unicode="v" horiz-adv-x="1331" 
d="M311 -8l-151 1126h477l31 -561l331 561h492l-754 -1126h-426z" />
    <glyph glyph-name="w" unicode="w" horiz-adv-x="1763" 
d="M199 -8l-37 1126h434l-6 -450l258 454h371l14 -458l240 454h448l-643 -1126h-383l-21 479l-282 -479h-393z" />
    <glyph glyph-name="x" unicode="x" horiz-adv-x="1226" 
d="M-152 0l525 575l-219 543h473l71 -229l189 229h506l-519 -567l224 -551h-473l-76 238l-195 -238h-506z" />
    <glyph glyph-name="y" unicode="y" horiz-adv-x="1335" 
d="M211 -334q-199 0 -332 84l180 342q94 -65 187 -65q36 0 73 12l-153 1079h471l39 -588l334 588h483l-690 -1079q-131 -205 -267.5 -289t-324.5 -84z" />
    <glyph glyph-name="z" unicode="z" horiz-adv-x="1144" 
d="M-106 0l77 291l584 463h-440l96 364h1059l-78 -291l-584 -462h461l-98 -365h-1077z" />
    <glyph glyph-name="braceleft" unicode="{" horiz-adv-x="1032" 
d="M688 -289q-116 7 -204 25.5t-141.5 44.5t-87 61.5t-46 72.5t-12.5 81q0 64 26 162q31 128 31 166q0 63 -42.5 94t-148.5 31h-43l74 278h43q62 0 107.5 8t78.5 27t54.5 42t37 62t24.5 77t18 97q9 60 20.5 103.5t34.5 90.5t55 79.5t83.5 62.5t119.5 48.5t163 29t214 10.5
l31 -247q-82 -5 -141.5 -24.5t-94.5 -45t-58 -68t-32.5 -80t-17.5 -94.5q-7 -44 -12.5 -71t-17.5 -64t-27 -60t-41 -50t-60 -43.5t-82.5 -31t-110.5 -22.5q179 -40 179 -207q0 -58 -21 -133q-27 -95 -27 -137q0 -62 41.5 -96t145.5 -47z" />
    <glyph glyph-name="bar" unicode="|" horiz-adv-x="739" 
d="M231 -262v1896h344v-1896h-344z" />
    <glyph glyph-name="braceright" unicode="}" horiz-adv-x="1032" 
d="M-98 -289l-31 248q82 5 141 24.5t93.5 44.5t57.5 68t32.5 79t19.5 95q6 39 11 62.5t14 57t20.5 54.5t29.5 46.5t43 42.5t57.5 33.5t76.5 27.5t98 18q-178 40 -178 207q0 58 21 133q26 91 26 138q0 62 -41 96t-145 47l112 231q144 -8 244 -33.5t152.5 -65.5t74 -84.5
t21.5 -100.5q0 -60 -27 -162q-30 -124 -30 -166q0 -63 42 -94t148 -31h43l-74 -278h-43q-74 0 -125.5 -13.5t-84 -35.5t-54.5 -64.5t-33 -86t-22 -114.5q-9 -60 -20.5 -103.5t-34.5 -90.5t-55 -79.5t-83.5 -62.5t-119.5 -48.5t-163 -29t-214 -10.5z" />
    <glyph glyph-name="asciitilde" unicode="~" 
d="M254 436l-199 84q62 159 152.5 237.5t191.5 78.5q89 0 183 -66q68 -47 102 -47q36 0 65.5 28t61.5 85l199 -84q-62 -159 -152.5 -237.5t-191.5 -78.5q-89 0 -183 66q-68 47 -102 47q-36 0 -65.5 -28t-61.5 -85z" />
    <glyph glyph-name="nbspace" unicode="&#xa0;" horiz-adv-x="520" 
 />
    <glyph glyph-name="exclamdown" unicode="&#xa1;" horiz-adv-x="655" 
d="M227 1065l99 369h475l-99 -369h-475zM-82 0l84 307l326 680h233l-39 -680l-84 -307h-520z" />
    <glyph glyph-name="cent" unicode="&#xa2;" horiz-adv-x="1198" 
d="M365 203q-132 58 -204.5 171t-72.5 265q0 139 51.5 265t141 218t217.5 146.5t274 54.5h33l49 123h238l-68 -174q98 -45 161 -127t85 -187l-324 -129q-13 84 -63 123l-183 -469q89 12 170 117l275 -182q-188 -266 -512 -266q-33 0 -49 2l-66 -166h-237zM690 993
q-101 -7 -166 -107t-65 -216q0 -97 51 -138z" />
    <glyph glyph-name="sterling" unicode="&#xa3;" horiz-adv-x="1267" 
d="M-63 0l71 266l168 66l57 209h-151l78 288h151l11 43q67 276 213 422q166 166 456 166q134 0 257 -50.5t186 -127.5l-283 -309q-77 80 -170 80q-71 0 -123 -52q-41 -41 -63 -124l-13 -48h383l-78 -288h-382l-50 -185h543l-96 -356h-1165z" />
    <glyph glyph-name="currency" unicode="&#xa4;" horiz-adv-x="1300" 
d="M768 -31q-236 0 -395 136t-178 364h-164l57 217h123q5 26 16 70h-121l58 217h119q90 225 269 358t437 133q168 0 292.5 -72.5t197.5 -195.5l-314 -252q-82 125 -221 125q-123 0 -205 -102h297l-55 -209h-319q-15 -65 -17 -74h318l-56 -209h-272q28 -110 158 -110
q118 0 227 100l244 -301q-207 -195 -496 -195z" />
    <glyph glyph-name="yen" unicode="&#xa5;" horiz-adv-x="1482" 
d="M350 0l51 193h-376l71 268h377l21 80h-375l71 268h279l-244 625h498l127 -414l313 414h561l-569 -625h268l-71 -268h-375l-23 -80h375l-72 -268h-376l-52 -193h-479z" />
    <glyph glyph-name="section" unicode="&#xa7;" horiz-adv-x="1267" 
d="M569 -31q-170 0 -324 54t-247 141l209 256q71 -62 177 -107t185 -45q72 0 72 43q0 24 -36.5 42.5t-153.5 56.5q-162 52 -251 119.5t-89 164.5q0 199 235 262q-59 72 -59 164q0 69 31.5 130t91 109.5t155.5 76.5t217 28q170 0 324.5 -53.5t247.5 -140.5l-209 -256
q-71 62 -177.5 106.5t-185.5 44.5q-71 0 -71 -43q0 -24 36 -41.5t154 -56.5q162 -52 251 -120t89 -165q0 -199 -235 -262q59 -72 59 -164q0 -144 -129.5 -244t-366.5 -100zM836 604q79 0 79 51q0 27 -39 51.5t-141 61.5q-163 61 -219 61q-80 0 -80 -51q0 -27 39 -50.5
t141 -61.5q165 -62 220 -62z" />
    <glyph glyph-name="dieresis" unicode="&#xa8;" 
d="M721 1188l84 307h377l-84 -307h-377zM262 1188l84 307h377l-84 -307h-377z" />
    <glyph glyph-name="copyright" unicode="&#xa9;" horiz-adv-x="1699" 
d="M897 -31q-153 0 -290.5 60t-235.5 160.5t-155.5 237.5t-57.5 286v4q0 149 58 286.5t157 238.5t237 161.5t291 60.5t290.5 -60t235.5 -160t155.5 -237t57.5 -286v-4q0 -149 -58 -286.5t-157 -239t-237 -162t-291 -60.5zM897 51q138 0 260.5 53.5t209 143.5t137 212.5
t50.5 256.5v4q0 179 -84.5 330.5t-235 241t-333.5 89.5t-335 -90.5t-237 -243t-85 -331.5v-4q0 -134 50 -256t136 -211t208 -142t259 -53zM911 319q-183 0 -301 115.5t-118 288.5v4q0 170 119.5 289t303.5 119q241 0 353 -203l-217 -129q-49 96 -144 96q-65 0 -106 -49
t-41 -121v-4q0 -75 41 -122.5t106 -47.5q53 0 87.5 25t62.5 73l217 -123q-123 -211 -363 -211z" />
    <glyph glyph-name="ordfeminine" unicode="&#xaa;" horiz-adv-x="819" 
d="M360 811q-72 0 -117.5 45t-45.5 123q0 98 73 156.5t201 58.5q57 0 139 -25l4 11q4 8 4 30q0 60 -90 60q-84 0 -163 -27l-33 172q109 33 248 33q147 0 220.5 -52.5t73.5 -146.5q0 -39 -12 -86l-90 -338h-256l19 62q-45 -39 -84.5 -57.5t-90.5 -18.5zM82 541l49 178h631
l-49 -178h-631zM485 956q30 0 59.5 27.5t39.5 69.5l6 24q-29 10 -53 10q-39 0 -66 -22.5t-27 -58.5q0 -23 11.5 -36.5t29.5 -13.5z" />
    <glyph glyph-name="guillemotleft" unicode="&#xab;" horiz-adv-x="1263" 
d="M250 53l-221 459l49 180l397 391l250 -227l-319 -309l172 -348zM774 41l-239 500l4 16l501 494l250 -228l-340 -329l152 -308z" />
    <glyph glyph-name="registered" unicode="&#xae;" horiz-adv-x="1699" 
d="M897 -31q-153 0 -290.5 60t-235.5 160.5t-155.5 237.5t-57.5 286v4q0 149 58 286.5t157 238.5t237 161.5t291 60.5t290.5 -60t235.5 -160t155.5 -237t57.5 -286v-4q0 -149 -58 -286.5t-157 -239t-237 -162t-291 -60.5zM897 51q138 0 260.5 53.5t209 143.5t137 212.5
t50.5 256.5v4q0 179 -84.5 330.5t-235 241t-333.5 89.5t-335 -90.5t-237 -243t-85 -331.5v-4q0 -134 50 -256t136 -211t208 -142t259 -53zM553 344v789h385q194 0 285 -91q71 -71 71 -188v-4q0 -165 -155 -238l184 -268h-299l-152 225h-4h-51v-225h-264zM817 758h113
q48 0 75 20t27 56v4q0 36 -27 54.5t-73 18.5h-115v-153z" />
    <glyph glyph-name="macron" unicode="&#xaf;" 
d="M285 1198l67 256h799l-68 -256h-798z" />
    <glyph glyph-name="degree" unicode="&#xb0;" horiz-adv-x="940" 
d="M555 674q-166 0 -266.5 101t-100.5 247q0 183 122 306.5t302 123.5q166 0 266.5 -101t100.5 -247q0 -183 -122 -306.5t-302 -123.5zM567 899q75 0 118.5 58.5t43.5 132.5q0 60 -36 98.5t-93 38.5q-75 0 -118.5 -58.5t-43.5 -132.5q0 -60 36 -98.5t93 -38.5z" />
    <glyph glyph-name="plusminus" unicode="&#xb1;" horiz-adv-x="1282" 
d="M561 -31q-420 0 -624 271l294 280q72 -88 147 -126t169 -38q81 0 130.5 35.5t49.5 83.5q0 80 -127 80h-141l90 336h113q182 0 182 104q0 36 -30 59t-75 23q-145 0 -315 -129l-227 297q106 96 263 157.5t343 61.5q120 0 219 -30.5t162.5 -82t98 -117t34.5 -136.5
q0 -295 -348 -385q116 -39 173.5 -111t57.5 -184q0 -133 -86.5 -236.5t-231.5 -158t-321 -54.5z" />
    <glyph glyph-name="acute" unicode="&#xb4;" 
d="M395 1188l303 393l447 -117l-414 -276h-336z" />
    <glyph glyph-name="mu" unicode="&#xb5;" horiz-adv-x="1628" 
d="M1204 -94l-90 133q-158 -68 -323 -68q-155 0 -289 50t-226.5 137t-145 207t-52.5 256q0 165 65 318.5t176 268.5t269 184.5t334 69.5q155 0 288.5 -50t226 -136.5t145 -206.5t52.5 -256q0 -155 -60 -301.5t-167 -263.5l104 -142zM819 377h25l-131 176l307 201l102 -152
q31 79 31 160q0 124 -69.5 201t-194.5 77q-74 0 -138 -33.5t-106 -88.5t-66 -123.5t-24 -139.5q0 -124 69.5 -201t194.5 -77z" />
    <glyph glyph-name="paragraph" unicode="&#xb6;" horiz-adv-x="1218" 
d="M514 0l115 434q-277 21 -400 130t-123 294q0 263 190.5 419.5t532.5 156.5h547l-383 -1434h-479z" />
    <glyph glyph-name="periodcentered" unicode="&#xb7;" horiz-adv-x="583" 
d="M12 410l127 471h475l-127 -471h-475z" />
    <glyph glyph-name="cedilla" unicode="&#xb8;" 
d="M332 -354l-336 153l258 242h301z" />
    <glyph glyph-name="ordmasculine" unicode="&#xba;" horiz-adv-x="823" 
d="M514 803q-141 0 -224 82.5t-83 210.5q0 139 105.5 244.5t262.5 105.5q142 0 225 -82t83 -209q0 -139 -106 -245.5t-263 -106.5zM94 541l47 178h590l-47 -178h-590zM530 1012q47 0 79 40.5t32 96.5q0 39 -23 64.5t-59 25.5q-46 0 -78 -41.5t-32 -97.5q0 -39 22.5 -63.5
t58.5 -24.5z" />
    <glyph glyph-name="guillemotright" unicode="&#xbb;" horiz-adv-x="1263" 
d="M229 86l-249 227l339 330l-151 307l328 146l239 -500l-4 -16zM795 53l-250 228l319 309l-172 348l328 145l221 -458l-49 -181z" />
    <glyph glyph-name="questiondown" unicode="&#xbf;" horiz-adv-x="1099" 
d="M512 1065l100 369h475l-100 -369h-475zM477 -23q-214 0 -342.5 104t-128.5 271q0 85 28.5 159t87 137.5t158 109t232.5 67.5l63 162h283l-31 -356l-26 -23q-170 -17 -252 -53t-82 -96q0 -35 25.5 -55.5t76.5 -20.5q123 0 262 100l156 -346q-219 -160 -510 -160z" />
    <glyph glyph-name="Agrave" unicode="&#xc0;" horiz-adv-x="1605" 
d="M-184 0l991 1444h475l217 -1444h-510l-24 193h-502l-125 -193h-522zM676 532h262l-39 349zM930 1516l-262 276l458 117l91 -393h-287z" />
    <glyph glyph-name="Aacute" unicode="&#xc1;" horiz-adv-x="1605" 
d="M-184 0l991 1444h475l217 -1444h-510l-24 193h-502l-125 -193h-522zM676 532h262l-39 349zM868 1516l303 393l447 -117l-414 -276h-336z" />
    <glyph glyph-name="Acircumflex" unicode="&#xc2;" horiz-adv-x="1605" 
d="M-184 0l991 1444h475l217 -1444h-510l-24 193h-502l-125 -193h-522zM676 532h262l-39 349zM612 1516l367 352h336l178 -352h-240l-151 114l-213 -114h-277z" />
    <glyph glyph-name="Atilde" unicode="&#xc3;" horiz-adv-x="1605" 
d="M-184 0l991 1444h475l217 -1444h-510l-24 193h-502l-125 -193h-522zM676 532h262l-39 349zM829 1516l-198 83q62 159 152.5 237.5t191.5 78.5q88 0 182 -66q68 -47 103 -47q36 0 65 28t61 85l199 -84q-62 -159 -152.5 -237t-191.5 -78q-89 0 -182 65q-68 47 -103 47
q-36 0 -66 -28t-61 -84z" />
    <glyph glyph-name="Adieresis" unicode="&#xc4;" horiz-adv-x="1605" 
d="M-184 0l991 1444h475l217 -1444h-510l-24 193h-502l-125 -193h-522zM676 532h262l-39 349zM1094 1516l84 307h376l-84 -307h-376zM635 1516l84 307h377l-84 -307h-377z" />
    <glyph glyph-name="Aring" unicode="&#xc5;" horiz-adv-x="1605" 
d="M-184 0q61 89 161 234.5t311 453t351.5 512t140.5 203.5q-22 52 -22 104q0 131 95.5 225.5t229.5 94.5q121 0 195 -70t74 -176q0 -102 -62 -186l209 -1395h-510l-24 193h-502l-125 -193h-522zM1032 1397q68 0 113 54.5t45 125.5q0 49 -31 82t-82 33q-68 0 -112.5 -55
t-44.5 -126q0 -49 30.5 -81.5t81.5 -32.5zM676 532h262l-39 349z" />
    <glyph glyph-name="AE" unicode="&#xc6;" horiz-adv-x="2254" 
d="M-186 0l1097 1434h1502l-107 -394h-711l-39 -145h660l-92 -346h-660l-43 -156h721l-104 -393h-1182l51 193h-430l-141 -193h-522zM729 532h270l144 537h-17z" />
    <glyph glyph-name="Ccedilla" unicode="&#xc7;" horiz-adv-x="1488" 
d="M616 -354l-335 153l223 209q-201 61 -316.5 215.5t-115.5 374.5q0 118 35.5 238t110.5 232.5t179 199.5t252.5 139.5t319.5 52.5q236 0 402.5 -114.5t207.5 -303.5l-422 -186q-49 174 -229 174q-103 0 -186 -57.5t-126 -145.5t-43 -186q0 -112 64 -177t162 -65
q156 0 278 150l332 -262q-224 -295 -606 -312z" />
    <glyph glyph-name="Egrave" unicode="&#xc8;" horiz-adv-x="1378" 
d="M-72 0l385 1434h1223l-106 -394h-752l-39 -145h700l-92 -346h-700l-43 -156h762l-105 -393h-1233zM877 1516l-263 276l459 117l90 -393h-286z" />
    <glyph glyph-name="Eacute" unicode="&#xc9;" horiz-adv-x="1378" 
d="M-72 0l385 1434h1223l-106 -394h-752l-39 -145h700l-92 -346h-700l-43 -156h762l-105 -393h-1233zM729 1516l303 393l447 -117l-414 -276h-336z" />
    <glyph glyph-name="Ecircumflex" unicode="&#xca;" horiz-adv-x="1378" 
d="M-72 0l385 1434h1223l-106 -394h-752l-39 -145h700l-92 -346h-700l-43 -156h762l-105 -393h-1233zM494 1516l366 352h336l178 -352h-239l-152 114l-213 -114h-276z" />
    <glyph glyph-name="Edieresis" unicode="&#xcb;" horiz-adv-x="1378" 
d="M-72 0l385 1434h1223l-106 -394h-752l-39 -145h700l-92 -346h-700l-43 -156h762l-105 -393h-1233zM977 1516l84 307h377l-84 -307h-377zM518 1516l84 307h377l-84 -307h-377z" />
    <glyph glyph-name="Igrave" unicode="&#xcc;" horiz-adv-x="643" 
d="M-68 0l385 1434h480l-385 -1434h-480zM461 1516l-262 276l458 117l91 -393h-287z" />
    <glyph glyph-name="Iacute" unicode="&#xcd;" horiz-adv-x="643" 
d="M-68 0l385 1434h480l-385 -1434h-480zM385 1516l303 393l447 -117l-414 -276h-336z" />
    <glyph glyph-name="Icircumflex" unicode="&#xce;" horiz-adv-x="643" 
d="M-68 0l385 1434h480l-385 -1434h-480zM123 1516l366 352h336l179 -352h-240l-152 114l-213 -114h-276z" />
    <glyph glyph-name="Idieresis" unicode="&#xcf;" horiz-adv-x="643" 
d="M-68 0l385 1434h480l-385 -1434h-480zM616 1516l84 307h377l-84 -307h-377zM158 1516l84 307h376l-83 -307h-377z" />
    <glyph glyph-name="Eth" unicode="&#xd0;" horiz-adv-x="1642" 
d="M72 0l147 549h-174l92 346h174l146 539h487q376 0 561 -185q156 -156 156 -420q0 -329 -236 -565q-264 -264 -751 -264h-602zM637 395h90q111 0 208 33.5t155 91.5q51 51 82.5 122t31.5 140q0 113 -63 176q-78 78 -248 78h-86l-37 -141h176l-92 -346h-176z" />
    <glyph glyph-name="Ntilde" unicode="&#xd1;" horiz-adv-x="1589" 
d="M-72 0l385 1434h449l325 -684l185 684h475l-385 -1434h-426l-340 713l-193 -713h-475zM793 1516l-199 83q62 159 152.5 237.5t191.5 78.5q88 0 182 -66q68 -47 103 -47q36 0 65.5 28t61.5 85l198 -84q-62 -159 -152.5 -237t-191.5 -78q-89 0 -182 65q-68 47 -102 47
q-36 0 -66 -28t-61 -84z" />
    <glyph glyph-name="Ograve" unicode="&#xd2;" horiz-adv-x="1628" 
d="M791 -29q-155 0 -289 50t-226.5 137t-145 207t-52.5 256q0 165 65 318.5t176 268.5t269 184.5t334 69.5q155 0 288.5 -50t226 -136.5t145 -206.5t52.5 -256q0 -165 -65 -318.5t-175.5 -269t-268.5 -185t-334 -69.5zM823 393q73 0 136 33.5t104.5 87.5t65.5 121t24 135
q0 118 -69.5 194t-194.5 76q-96 0 -173.5 -57t-117 -142t-39.5 -177q0 -119 69.5 -195t194.5 -76zM897 1516l-262 276l459 117l90 -393h-287z" />
    <glyph glyph-name="Oacute" unicode="&#xd3;" horiz-adv-x="1628" 
d="M791 -29q-155 0 -289 50t-226.5 137t-145 207t-52.5 256q0 165 65 318.5t176 268.5t269 184.5t334 69.5q155 0 288.5 -50t226 -136.5t145 -206.5t52.5 -256q0 -165 -65 -318.5t-175.5 -269t-268.5 -185t-334 -69.5zM823 393q73 0 136 33.5t104.5 87.5t65.5 121t24 135
q0 118 -69.5 194t-194.5 76q-96 0 -173.5 -57t-117 -142t-39.5 -177q0 -119 69.5 -195t194.5 -76zM768 1516l303 393l447 -117l-414 -276h-336z" />
    <glyph glyph-name="Ocircumflex" unicode="&#xd4;" horiz-adv-x="1628" 
d="M791 -29q-155 0 -289 50t-226.5 137t-145 207t-52.5 256q0 165 65 318.5t176 268.5t269 184.5t334 69.5q155 0 288.5 -50t226 -136.5t145 -206.5t52.5 -256q0 -165 -65 -318.5t-175.5 -269t-268.5 -185t-334 -69.5zM823 393q73 0 136 33.5t104.5 87.5t65.5 121t24 135
q0 118 -69.5 194t-194.5 76q-96 0 -173.5 -57t-117 -142t-39.5 -177q0 -119 69.5 -195t194.5 -76zM559 1516l367 352h336l178 -352h-240l-151 114l-213 -114h-277z" />
    <glyph glyph-name="Otilde" unicode="&#xd5;" horiz-adv-x="1628" 
d="M791 -29q-155 0 -289 50t-226.5 137t-145 207t-52.5 256q0 165 65 318.5t176 268.5t269 184.5t334 69.5q155 0 288.5 -50t226 -136.5t145 -206.5t52.5 -256q0 -165 -65 -318.5t-175.5 -269t-268.5 -185t-334 -69.5zM823 393q73 0 136 33.5t104.5 87.5t65.5 121t24 135
q0 118 -69.5 194t-194.5 76q-96 0 -173.5 -57t-117 -142t-39.5 -177q0 -119 69.5 -195t194.5 -76zM778 1516l-198 83q62 159 152.5 237.5t191.5 78.5q88 0 182 -66q68 -47 102 -47q36 0 65.5 28t61.5 85l199 -84q-62 -159 -152.5 -237t-191.5 -78q-89 0 -182 65
q-68 47 -103 47q-36 0 -66 -28t-61 -84z" />
    <glyph glyph-name="Odieresis" unicode="&#xd6;" horiz-adv-x="1628" 
d="M791 -29q-155 0 -289 50t-226.5 137t-145 207t-52.5 256q0 165 65 318.5t176 268.5t269 184.5t334 69.5q155 0 288.5 -50t226 -136.5t145 -206.5t52.5 -256q0 -165 -65 -318.5t-175.5 -269t-268.5 -185t-334 -69.5zM823 393q73 0 136 33.5t104.5 87.5t65.5 121t24 135
q0 118 -69.5 194t-194.5 76q-96 0 -173.5 -57t-117 -142t-39.5 -177q0 -119 69.5 -195t194.5 -76zM1061 1516l84 307h377l-84 -307h-377zM602 1516l84 307h377l-84 -307h-377z" />
    <glyph glyph-name="Oslash" unicode="&#xd8;" horiz-adv-x="1628" 
d="M791 -29q-262 0 -453 138l-131 -119h-301l289 260q-117 160 -117 371q0 165 65 318.5t176 268.5t269 184.5t334 69.5q273 0 464 -145l142 127h301l-303 -273q108 -154 108 -358q0 -165 -65 -318.5t-175.5 -269t-268.5 -185t-334 -69.5zM561 573l486 435q-61 43 -158 43
q-74 0 -139 -34.5t-108 -90t-68 -125t-25 -139.5q0 -48 12 -89zM823 383q74 0 139 34.5t108 90t68 125t25 139.5q0 41 -8 72l-477 -428q68 -33 145 -33z" />
    <glyph glyph-name="Ugrave" unicode="&#xd9;" horiz-adv-x="1548" 
d="M698 -29q-300 0 -460 135.5t-160 380.5q0 111 31 232l192 715h487l-200 -746q-17 -70 -17 -113q0 -89 50.5 -134.5t146.5 -45.5q94 0 154 60q61 61 102 209l207 770h487l-227 -844q-75 -280 -225 -430q-189 -189 -568 -189zM907 1505l-262 277l459 116l90 -393h-287z" />
    <glyph glyph-name="Uacute" unicode="&#xda;" horiz-adv-x="1548" 
d="M698 -29q-300 0 -460 135.5t-160 380.5q0 111 31 232l192 715h487l-200 -746q-17 -70 -17 -113q0 -89 50.5 -134.5t146.5 -45.5q94 0 154 60q61 61 102 209l207 770h487l-227 -844q-75 -280 -225 -430q-189 -189 -568 -189zM807 1505l303 393l446 -116l-413 -277h-336z
" />
    <glyph glyph-name="Ucircumflex" unicode="&#xdb;" horiz-adv-x="1548" 
d="M698 -29q-300 0 -460 135.5t-160 380.5q0 111 31 232l192 715h487l-200 -746q-17 -70 -17 -113q0 -89 50.5 -134.5t146.5 -45.5q94 0 154 60q61 61 102 209l207 770h487l-227 -844q-75 -280 -225 -430q-189 -189 -568 -189zM582 1516l366 352h336l178 -352h-239l-152 114
l-213 -114h-276z" />
    <glyph glyph-name="Udieresis" unicode="&#xdc;" horiz-adv-x="1548" 
d="M698 -29q-300 0 -460 135.5t-160 380.5q0 111 31 232l192 715h487l-200 -746q-17 -70 -17 -113q0 -89 50.5 -134.5t146.5 -45.5q94 0 154 60q61 61 102 209l207 770h487l-227 -844q-75 -280 -225 -430q-189 -189 -568 -189zM1069 1516l84 307h377l-84 -307h-377z
M610 1516l84 307h377l-84 -307h-377z" />
    <glyph glyph-name="Yacute" unicode="&#xdd;" horiz-adv-x="1441" 
d="M307 0l146 547l-281 887h504l117 -480l372 480h568l-815 -947l-132 -487h-479zM729 1516l303 393l447 -117l-414 -276h-336z" />
    <glyph glyph-name="Thorn" unicode="&#xde;" horiz-adv-x="1382" 
d="M-72 0l385 1434h480l-52 -201h15q192 0 317.5 -37.5t204.5 -116.5q111 -111 111 -282q0 -267 -190.5 -427.5t-520.5 -160.5h-217l-53 -209h-480zM559 561h86q131 0 198.5 52.5t67.5 138.5q0 50 -34 84q-45 45 -144 45h-90z" />
    <glyph glyph-name="germandbls" unicode="&#xdf;" horiz-adv-x="1323" 
d="M496 -6l84 319q113 6 171 51.5t58 110.5q0 49 -39 83t-115 38l58 209q110 21 162.5 77t52.5 134q0 54 -30.5 85.5t-74.5 31.5q-124 0 -182 -215l-246 -918h-465l250 932q76 283 209 416q85 85 194 125t259 40q231 0 373.5 -112.5t142.5 -302.5q0 -155 -82 -267t-248 -155
q106 -33 164.5 -105t58.5 -161q0 -73 -28.5 -139.5t-89.5 -123.5t-148 -95.5t-213 -54.5t-276 -3z" />
    <glyph glyph-name="agrave" unicode="&#xe0;" horiz-adv-x="1239" 
d="M289 -25q-132 0 -215.5 82t-83.5 224q0 179 132.5 284t366.5 105q130 0 254 -37l5 12q8 28 8 55q0 109 -172 109q-77 0 -162.5 -13.5t-142.5 -35.5l-62 315q196 60 461 60q271 0 407 -96.5t136 -268.5q0 -74 -21 -156l-164 -614h-465l31 113q-84 -71 -153.5 -104.5
t-159.5 -33.5zM514 240q56 0 108 51.5t72 128.5l13 47q-46 12 -86 12q-88 0 -135.5 -39.5t-47.5 -111.5q0 -41 21.5 -64.5t54.5 -23.5zM690 1188l-262 276l459 117l90 -393h-287z" />
    <glyph glyph-name="aacute" unicode="&#xe1;" horiz-adv-x="1239" 
d="M289 -25q-132 0 -215.5 82t-83.5 224q0 179 132.5 284t366.5 105q130 0 254 -37l5 12q8 28 8 55q0 109 -172 109q-77 0 -162.5 -13.5t-142.5 -35.5l-62 315q196 60 461 60q271 0 407 -96.5t136 -268.5q0 -74 -21 -156l-164 -614h-465l31 113q-84 -71 -153.5 -104.5
t-159.5 -33.5zM514 240q56 0 108 51.5t72 128.5l13 47q-46 12 -86 12q-88 0 -135.5 -39.5t-47.5 -111.5q0 -41 21.5 -64.5t54.5 -23.5zM563 1188l303 393l447 -117l-414 -276h-336z" />
    <glyph glyph-name="acircumflex" unicode="&#xe2;" horiz-adv-x="1239" 
d="M289 -25q-132 0 -215.5 82t-83.5 224q0 179 132.5 284t366.5 105q130 0 254 -37l5 12q8 28 8 55q0 109 -172 109q-77 0 -162.5 -13.5t-142.5 -35.5l-62 315q196 60 461 60q271 0 407 -96.5t136 -268.5q0 -74 -21 -156l-164 -614h-465l31 113q-84 -71 -153.5 -104.5
t-159.5 -33.5zM514 240q56 0 108 51.5t72 128.5l13 47q-46 12 -86 12q-88 0 -135.5 -39.5t-47.5 -111.5q0 -41 21.5 -64.5t54.5 -23.5zM354 1188l367 352h336l178 -352h-240l-151 115l-213 -115h-277z" />
    <glyph glyph-name="atilde" unicode="&#xe3;" horiz-adv-x="1239" 
d="M289 -25q-132 0 -215.5 82t-83.5 224q0 179 132.5 284t366.5 105q130 0 254 -37l5 12q8 28 8 55q0 109 -172 109q-77 0 -162.5 -13.5t-142.5 -35.5l-62 315q196 60 461 60q271 0 407 -96.5t136 -268.5q0 -74 -21 -156l-164 -614h-465l31 113q-84 -71 -153.5 -104.5
t-159.5 -33.5zM514 240q56 0 108 51.5t72 128.5l13 47q-46 12 -86 12q-88 0 -135.5 -39.5t-47.5 -111.5q0 -41 21.5 -64.5t54.5 -23.5zM547 1188l-199 84q62 159 152.5 237t191.5 78q89 0 182 -65q68 -47 103 -47q36 0 66 28t61 84l199 -84q-62 -159 -153 -237t-192 -78
q-89 0 -182 65q-68 47 -102 47q-36 0 -66 -28t-61 -84z" />
    <glyph glyph-name="adieresis" unicode="&#xe4;" horiz-adv-x="1239" 
d="M289 -25q-132 0 -215.5 82t-83.5 224q0 179 132.5 284t366.5 105q130 0 254 -37l5 12q8 28 8 55q0 109 -172 109q-77 0 -162.5 -13.5t-142.5 -35.5l-62 315q196 60 461 60q271 0 407 -96.5t136 -268.5q0 -74 -21 -156l-164 -614h-465l31 113q-84 -71 -153.5 -104.5
t-159.5 -33.5zM514 240q56 0 108 51.5t72 128.5l13 47q-46 12 -86 12q-88 0 -135.5 -39.5t-47.5 -111.5q0 -41 21.5 -64.5t54.5 -23.5zM840 1190l84 307h376l-83 -307h-377zM381 1190l84 307h377l-84 -307h-377z" />
    <glyph glyph-name="aring" unicode="&#xe5;" horiz-adv-x="1239" 
d="M289 -25q-132 0 -215.5 82t-83.5 224q0 179 132.5 284t366.5 105q130 0 254 -37l5 12q8 28 8 55q0 109 -172 109q-77 0 -162.5 -13.5t-142.5 -35.5l-62 315q196 60 461 60q271 0 407 -96.5t136 -268.5q0 -74 -21 -156l-164 -614h-465l31 113q-84 -71 -153.5 -104.5
t-159.5 -33.5zM514 240q56 0 108 51.5t72 128.5l13 47q-46 12 -86 12q-88 0 -135.5 -39.5t-47.5 -111.5q0 -41 21.5 -64.5t54.5 -23.5zM846 1210q-121 0 -194.5 70t-73.5 176q0 131 95.5 225.5t229.5 94.5q121 0 194.5 -70t73.5 -176q0 -131 -95.5 -225.5t-229.5 -94.5z
M852 1346q68 0 113 54.5t45 125.5q0 49 -31 81.5t-82 32.5q-68 0 -113 -54.5t-45 -125.5q0 -49 31 -81.5t82 -32.5z" />
    <glyph glyph-name="ae" unicode="&#xe6;" horiz-adv-x="1890" 
d="M811 162q-109 -103 -218.5 -145t-242.5 -42q-162 0 -261 81.5t-99 224.5q0 179 132.5 284t366.5 105q130 0 254 -37l5 12q8 28 8 55q0 109 -172 109q-77 0 -162.5 -13.5t-142.5 -35.5l-62 315q196 60 461 60q245 0 360 -103q171 113 365 113q101 0 182.5 -28t134 -75
t88.5 -110.5t51 -131t15 -141.5q0 -104 -33 -208h-719q5 -69 48.5 -109.5t119.5 -40.5q107 0 226 90l215 -235q-206 -183 -494 -183q-135 0 -244 50t-182 139zM1151 655h315q9 24 9 50q0 48 -33 83t-88 35q-60 0 -116.5 -40.5t-86.5 -127.5zM702 467q-43 12 -81 12
q-88 0 -135.5 -39.5t-47.5 -111.5q0 -41 26.5 -65.5t72.5 -24.5q95 0 188 81q-23 74 -23 148z" />
    <glyph glyph-name="ccedilla" unicode="&#xe7;" horiz-adv-x="1157" 
d="M414 -354l-336 153l231 217q-131 55 -205.5 166.5t-74.5 266.5q0 114 34 220t96.5 191t146.5 149t189.5 99t219.5 35q197 0 325.5 -101.5t161.5 -263.5l-368 -147q-31 135 -144 135q-95 0 -157 -86t-62 -193q0 -61 34 -99t83 -38q55 0 96 20.5t84 73.5l313 -208
q-173 -249 -483 -263z" />
    <glyph glyph-name="egrave" unicode="&#xe8;" horiz-adv-x="1220" 
d="M453 451q5 -69 48.5 -109.5t119.5 -40.5q106 0 225 90l215 -235q-206 -183 -479 -183q-253 0 -401 135t-148 357q0 128 47 249.5t132 217.5t216 154.5t285 58.5q107 0 192.5 -28t140.5 -74.5t91.5 -110.5t51.5 -131.5t15 -141.5q0 -104 -33 -208h-718zM481 655h316
q8 21 8 50q0 48 -33 83t-88 35q-60 0 -116.5 -40.5t-86.5 -127.5zM657 1188l-262 276l459 117l90 -393h-287z" />
    <glyph glyph-name="eacute" unicode="&#xe9;" horiz-adv-x="1220" 
d="M453 451q5 -69 48.5 -109.5t119.5 -40.5q106 0 225 90l215 -235q-206 -183 -479 -183q-253 0 -401 135t-148 357q0 128 47 249.5t132 217.5t216 154.5t285 58.5q107 0 192.5 -28t140.5 -74.5t91.5 -110.5t51.5 -131.5t15 -141.5q0 -104 -33 -208h-718zM481 655h316
q8 21 8 50q0 48 -33 83t-88 35q-60 0 -116.5 -40.5t-86.5 -127.5zM537 1188l303 393l446 -117l-414 -276h-335z" />
    <glyph glyph-name="ecircumflex" unicode="&#xea;" horiz-adv-x="1220" 
d="M453 451q5 -69 48.5 -109.5t119.5 -40.5q106 0 225 90l215 -235q-206 -183 -479 -183q-253 0 -401 135t-148 357q0 128 47 249.5t132 217.5t216 154.5t285 58.5q107 0 192.5 -28t140.5 -74.5t91.5 -110.5t51.5 -131.5t15 -141.5q0 -104 -33 -208h-718zM481 655h316
q8 21 8 50q0 48 -33 83t-88 35q-60 0 -116.5 -40.5t-86.5 -127.5zM313 1188l367 352h336l178 -352h-240l-151 115l-213 -115h-277z" />
    <glyph glyph-name="edieresis" unicode="&#xeb;" horiz-adv-x="1220" 
d="M453 451q5 -69 48.5 -109.5t119.5 -40.5q106 0 225 90l215 -235q-206 -183 -479 -183q-253 0 -401 135t-148 357q0 128 47 249.5t132 217.5t216 154.5t285 58.5q107 0 192.5 -28t140.5 -74.5t91.5 -110.5t51.5 -131.5t15 -141.5q0 -104 -33 -208h-718zM481 655h316
q8 21 8 50q0 48 -33 83t-88 35q-60 0 -116.5 -40.5t-86.5 -127.5zM803 1188l84 307h377l-84 -307h-377zM344 1188l84 307h377l-84 -307h-377z" />
    <glyph glyph-name="igrave" unicode="&#xec;" horiz-adv-x="616" 
d="M-74 0l299 1118h465l-299 -1118h-465zM391 1188l-262 276l459 117l90 -393h-287z" />
    <glyph glyph-name="iacute" unicode="&#xed;" horiz-adv-x="616" 
d="M-74 0l299 1118h465l-299 -1118h-465zM262 1188l303 393l447 -117l-414 -276h-336z" />
    <glyph glyph-name="icircumflex" unicode="&#xee;" horiz-adv-x="616" 
d="M-74 0l299 1118h465l-299 -1118h-465zM20 1188l367 352h336l178 -352h-239l-152 115l-213 -115h-277z" />
    <glyph glyph-name="idieresis" unicode="&#xef;" horiz-adv-x="616" 
d="M-74 0l299 1118h465l-299 -1118h-465zM512 1188l84 307h377l-84 -307h-377zM53 1188l84 307h377l-84 -307h-377z" />
    <glyph glyph-name="eth" unicode="&#xf0;" horiz-adv-x="1323" 
d="M592 -25q-250 0 -406.5 136t-156.5 338q0 103 40.5 197t113.5 166.5t182.5 115.5t238.5 43q133 0 225 -47l-86 190l-260 -82l-96 209l264 72l-82 182h435l28 -68l254 80l96 -209l-262 -71l82 -187q90 -208 90 -397q0 -144 -49.5 -267.5t-139.5 -212t-221.5 -138.5
t-289.5 -50zM629 360q85 0 141.5 52t56.5 127q0 57 -43 94t-104 37q-85 0 -142 -52t-57 -126q0 -57 43.5 -94.5t104.5 -37.5z" />
    <glyph glyph-name="ntilde" unicode="&#xf1;" horiz-adv-x="1312" 
d="M-78 0l299 1118h465l-37 -139q60 73 147.5 119.5t186.5 46.5q152 0 236 -91.5t84 -250.5q0 -87 -27 -189l-164 -614h-465l150 557q12 44 12 84q0 46 -24.5 72t-73.5 26q-67 0 -108 -44.5t-66 -137.5l-150 -557h-465zM559 1188l-199 84q62 159 153 237t192 78
q89 0 182 -65q68 -47 102 -47q36 0 66 28t61 84l199 -84q-62 -159 -152.5 -237t-191.5 -78q-90 0 -183 65q-68 47 -102 47q-36 0 -66 -28t-61 -84z" />
    <glyph glyph-name="ograve" unicode="&#xf2;" horiz-adv-x="1302" 
d="M596 -27q-129 0 -235.5 40.5t-176.5 111t-108.5 165.5t-38.5 204q0 127 50.5 245.5t138 208t213.5 143.5t268 54q129 0 235.5 -40.5t176.5 -110.5t108.5 -165t38.5 -204q0 -127 -50.5 -246t-138 -208.5t-213.5 -143.5t-268 -54zM625 352q86 0 144 75t58 177
q0 71 -41 116.5t-108 45.5q-86 0 -144.5 -75t-58.5 -177q0 -71 41.5 -116.5t108.5 -45.5zM674 1188l-262 276l458 117l91 -393h-287z" />
    <glyph glyph-name="oacute" unicode="&#xf3;" horiz-adv-x="1302" 
d="M596 -27q-129 0 -235.5 40.5t-176.5 111t-108.5 165.5t-38.5 204q0 127 50.5 245.5t138 208t213.5 143.5t268 54q129 0 235.5 -40.5t176.5 -110.5t108.5 -165t38.5 -204q0 -127 -50.5 -246t-138 -208.5t-213.5 -143.5t-268 -54zM625 352q86 0 144 75t58 177
q0 71 -41 116.5t-108 45.5q-86 0 -144.5 -75t-58.5 -177q0 -71 41.5 -116.5t108.5 -45.5zM563 1188l303 393l447 -117l-414 -276h-336z" />
    <glyph glyph-name="ocircumflex" unicode="&#xf4;" horiz-adv-x="1302" 
d="M596 -27q-129 0 -235.5 40.5t-176.5 111t-108.5 165.5t-38.5 204q0 127 50.5 245.5t138 208t213.5 143.5t268 54q129 0 235.5 -40.5t176.5 -110.5t108.5 -165t38.5 -204q0 -127 -50.5 -246t-138 -208.5t-213.5 -143.5t-268 -54zM625 352q86 0 144 75t58 177
q0 71 -41 116.5t-108 45.5q-86 0 -144.5 -75t-58.5 -177q0 -71 41.5 -116.5t108.5 -45.5zM317 1188l367 352h336l178 -352h-240l-151 115l-213 -115h-277z" />
    <glyph glyph-name="otilde" unicode="&#xf5;" horiz-adv-x="1302" 
d="M596 -27q-129 0 -235.5 40.5t-176.5 111t-108.5 165.5t-38.5 204q0 127 50.5 245.5t138 208t213.5 143.5t268 54q129 0 235.5 -40.5t176.5 -110.5t108.5 -165t38.5 -204q0 -127 -50.5 -246t-138 -208.5t-213.5 -143.5t-268 -54zM625 352q86 0 144 75t58 177
q0 71 -41 116.5t-108 45.5q-86 0 -144.5 -75t-58.5 -177q0 -71 41.5 -116.5t108.5 -45.5zM537 1188l-199 84q62 159 152.5 237t191.5 78q89 0 182 -65q68 -47 103 -47q36 0 66 28t61 84l198 -84q-62 -159 -152.5 -237t-191.5 -78q-89 0 -182 65q-68 47 -102 47
q-36 0 -66 -28t-61 -84z" />
    <glyph glyph-name="odieresis" unicode="&#xf6;" horiz-adv-x="1302" 
d="M596 -27q-129 0 -235.5 40.5t-176.5 111t-108.5 165.5t-38.5 204q0 127 50.5 245.5t138 208t213.5 143.5t268 54q129 0 235.5 -40.5t176.5 -110.5t108.5 -165t38.5 -204q0 -127 -50.5 -246t-138 -208.5t-213.5 -143.5t-268 -54zM625 352q86 0 144 75t58 177
q0 71 -41 116.5t-108 45.5q-86 0 -144.5 -75t-58.5 -177q0 -71 41.5 -116.5t108.5 -45.5zM803 1188l84 307h377l-84 -307h-377zM344 1188l84 307h377l-84 -307h-377z" />
    <glyph glyph-name="oslash" unicode="&#xf8;" horiz-adv-x="1302" 
d="M596 -25q-204 0 -348 101l-96 -86h-273l242 215q-84 128 -84 301q0 122 50.5 238t138 204.5t213.5 142.5t268 54q218 0 364 -111l107 94h272l-260 -229q76 -124 76 -285q0 -122 -50.5 -238t-138 -204.5t-213.5 -142.5t-268 -54zM457 477l319 281q-42 28 -96 28
q-94 0 -159.5 -82t-65.5 -192q0 -23 2 -35zM623 334q94 0 159.5 82t65.5 192v10l-303 -266q35 -18 78 -18z" />
    <glyph glyph-name="ugrave" unicode="&#xf9;" horiz-adv-x="1312" 
d="M342 -27q-152 0 -235.5 91.5t-83.5 250.5q0 91 26 189l164 614h465l-150 -557q-12 -43 -12 -84q0 -46 24.5 -72t73.5 -26q67 0 108 44.5t66 137.5l150 557h465l-299 -1118h-465l37 139q-60 -73 -147.5 -119.5t-186.5 -46.5zM745 1188l-262 276l459 117l90 -393h-287z" />
    <glyph glyph-name="uacute" unicode="&#xfa;" horiz-adv-x="1312" 
d="M342 -27q-152 0 -235.5 91.5t-83.5 250.5q0 91 26 189l164 614h465l-150 -557q-12 -43 -12 -84q0 -46 24.5 -72t73.5 -26q67 0 108 44.5t66 137.5l150 557h465l-299 -1118h-465l37 139q-60 -73 -147.5 -119.5t-186.5 -46.5zM604 1188l303 393l447 -117l-414 -276h-336z
" />
    <glyph glyph-name="ucircumflex" unicode="&#xfb;" horiz-adv-x="1312" 
d="M342 -27q-152 0 -235.5 91.5t-83.5 250.5q0 91 26 189l164 614h465l-150 -557q-12 -43 -12 -84q0 -46 24.5 -72t73.5 -26q67 0 108 44.5t66 137.5l150 557h465l-299 -1118h-465l37 139q-60 -73 -147.5 -119.5t-186.5 -46.5zM377 1188l366 352h336l178 -352h-239l-152 115
l-213 -115h-276z" />
    <glyph glyph-name="udieresis" unicode="&#xfc;" horiz-adv-x="1312" 
d="M342 -27q-152 0 -235.5 91.5t-83.5 250.5q0 91 26 189l164 614h465l-150 -557q-12 -43 -12 -84q0 -46 24.5 -72t73.5 -26q67 0 108 44.5t66 137.5l150 557h465l-299 -1118h-465l37 139q-60 -73 -147.5 -119.5t-186.5 -46.5zM874 1188l84 307h377l-84 -307h-377zM416 1188
l84 307h377l-84 -307h-377z" />
    <glyph glyph-name="yacute" unicode="&#xfd;" horiz-adv-x="1335" 
d="M211 -334q-199 0 -332 84l180 342q94 -65 187 -65q36 0 73 12l-153 1079h471l39 -588l334 588h483l-690 -1079q-131 -205 -267.5 -289t-324.5 -84zM623 1188l303 393l446 -117l-414 -276h-335z" />
    <glyph glyph-name="thorn" unicode="&#xfe;" horiz-adv-x="1374" 
d="M-166 -328l488 1823h464l-131 -491q62 63 147.5 102t172.5 39q155 0 260.5 -118t105.5 -318q0 -150 -46 -286.5t-124 -235t-187 -156.5t-230 -58q-219 0 -328 170l-127 -471h-465zM659 354q93 0 156.5 75.5t63.5 176.5q0 71 -42.5 115.5t-107.5 44.5q-93 0 -156 -75.5
t-63 -176.5q0 -71 42 -115.5t107 -44.5z" />
    <glyph glyph-name="ydieresis" unicode="&#xff;" horiz-adv-x="1335" 
d="M211 -334q-199 0 -332 84l180 342q94 -65 187 -65q36 0 73 12l-153 1079h471l39 -588l334 588h483l-690 -1079q-131 -205 -267.5 -289t-324.5 -84zM870 1188l84 307h377l-84 -307h-377zM412 1188l84 307h376l-84 -307h-376z" />
    <glyph glyph-name="dotlessi" unicode="&#x131;" horiz-adv-x="616" 
d="M-74 0l299 1118h465l-299 -1118h-465z" />
    <glyph glyph-name="Lslash" unicode="&#x141;" horiz-adv-x="1366" 
d="M57 0l125 467l-170 -45l113 416l170 45l147 551h480l-111 -410l358 96l-112 -415l-357 -97l-53 -198h643l-110 -410h-1123z" />
    <glyph glyph-name="lslash" unicode="&#x142;" horiz-adv-x="892" 
d="M63 0l136 508l-193 -51l109 403l192 51l158 584h465l-123 -455l194 52l-108 -406l-195 -51l-170 -635h-465z" />
    <glyph glyph-name="OE" unicode="&#x152;" horiz-adv-x="2228" 
d="M791 0q-378 0 -562 184q-155 155 -155 420q0 330 235 565q265 265 752 265h1325l-107 -394h-710l-39 -145h659l-92 -346h-659l-43 -156h721l-105 -393h-1220zM852 418h80l160 598h-84q-108 0 -198 -30.5t-146 -86.5q-45 -45 -74 -112t-29 -132q0 -106 60 -166
q71 -71 231 -71z" />
    <glyph glyph-name="oe" unicode="&#x153;" horiz-adv-x="1998" 
d="M1231 451q5 -69 48.5 -109.5t119.5 -40.5q106 0 225 90l215 -235q-206 -183 -493 -183q-211 0 -357 146q-173 -144 -393 -144q-172 0 -300 70.5t-193.5 190t-65.5 270.5q0 122 50.5 238t138 204.5t213.5 142.5t268 54q231 0 378 -150q182 150 416 150q103 0 185.5 -28
t137 -75t91 -110.5t52 -131t15.5 -141.5q0 -107 -32 -208h-719zM1260 655h315q8 21 8 50q0 48 -33 83t-88 35q-60 0 -116 -40.5t-86 -127.5zM625 354q86 0 144 74t58 176q0 71 -41 116.5t-108 45.5q-86 0 -144.5 -74t-58.5 -176q0 -71 41.5 -116.5t108.5 -45.5z" />
    <glyph glyph-name="Scaron" unicode="&#x160;" horiz-adv-x="1337" 
d="M633 -29q-208 0 -390.5 69t-316.5 191l275 328q243 -203 483 -203q47 0 75.5 17t28.5 47q0 24 -17 40t-61.5 35.5t-156.5 61.5q-210 77 -300.5 164.5t-90.5 239.5q0 103 46.5 194.5t129 159.5t204.5 107.5t265 39.5q189 0 354.5 -57t284.5 -158l-275 -327
q-87 71 -196 115t-217 44q-105 0 -105 -57q0 -30 33.5 -47t196.5 -78q98 -36 166.5 -72t123.5 -84.5t82 -112t27 -143.5q0 -109 -44 -202.5t-125.5 -163t-205 -109t-274.5 -39.5zM735 1516l-178 352h240l151 -115l213 115h277l-367 -352h-336z" />
    <glyph glyph-name="scaron" unicode="&#x161;" horiz-adv-x="1069" 
d="M496 -27q-180 0 -333.5 51.5t-264.5 135.5l204 266q77 -62 193 -107t209 -45q33 0 49 11t16 28q0 27 -34 47.5t-140 59.5q-151 55 -228 127.5t-77 195.5q0 174 140 288t384 114q161 0 300 -43t229 -111l-205 -266q-70 48 -165.5 83.5t-174.5 35.5q-74 0 -74 -37
q0 -23 28.5 -38.5t133.5 -53.5q59 -21 102 -40.5t86 -49t70 -63t43.5 -81t16.5 -104.5q0 -58 -16 -113.5t-54.5 -109t-95.5 -93t-145 -64t-197 -24.5zM551 1188l-178 352h239l152 -115l213 115h276l-366 -352h-336z" />
    <glyph glyph-name="Ydieresis" unicode="&#x178;" horiz-adv-x="1441" 
d="M307 0l146 547l-281 887h504l117 -480l372 480h568l-815 -947l-132 -487h-479zM983 1516l84 307h377l-84 -307h-377zM524 1516l84 307h377l-84 -307h-377z" />
    <glyph glyph-name="Zcaron" unicode="&#x17d;" horiz-adv-x="1378" 
d="M-109 0l91 336l817 704h-604l106 394h1272l-90 -336l-819 -705h628l-104 -393h-1297zM770 1516l-178 352h239l152 -115l213 115h277l-367 -352h-336z" />
    <glyph glyph-name="zcaron" unicode="&#x17e;" horiz-adv-x="1144" 
d="M-106 0l77 291l584 463h-440l96 364h1059l-78 -291l-584 -462h461l-98 -365h-1077zM571 1188l-178 352h240l151 -115l213 115h277l-367 -352h-336z" />
    <glyph glyph-name="florin" unicode="&#x192;" horiz-adv-x="1177" 
d="M102 -31q-108 0 -221 25l62 317q60 -16 108 -16q64 0 104 32.5t83 127.5l86 190h-111l63 330h195l64 139q84 190 220 270t363 80q137 0 242 -24l-62 -318q-77 17 -129 17q-77 0 -125.5 -31t-76.5 -98l-17 -35h236l-64 -330h-319l-125 -283q-98 -218 -230 -305.5
t-346 -87.5z" />
    <glyph glyph-name="circumflex" unicode="&#x2c6;" 
d="M240 1188l366 352h336l178 -352h-239l-152 115l-213 -115h-276z" />
    <glyph glyph-name="caron" unicode="&#x2c7;" 
d="M512 1188l-178 352h239l152 -115l213 115h276l-366 -352h-336z" />
    <glyph glyph-name="breve" unicode="&#x2d8;" 
d="M735 1186q-177 0 -281 88.5t-104 257.5v8h250q6 -53 43 -84t102 -31q142 0 203 115h250q-44 -167 -169 -260.5t-294 -93.5z" />
    <glyph glyph-name="dotaccent" unicode="&#x2d9;" 
d="M485 1188l84 307h385l-84 -307h-385z" />
    <glyph glyph-name="ring" unicode="&#x2da;" 
d="M729 1210q-121 0 -194.5 70t-73.5 176q0 131 95.5 225.5t229.5 94.5q121 0 195 -70t74 -176q0 -131 -95.5 -225.5t-230.5 -94.5zM735 1346q68 0 113 54.5t45 125.5q0 49 -31 81.5t-82 32.5q-68 0 -112.5 -54.5t-44.5 -125.5q0 -49 30.5 -81.5t81.5 -32.5z" />
    <glyph glyph-name="ogonek" unicode="&#x2db;" 
d="M555 -336q-223 -27 -337 16.5t-114 143.5q0 97 105 196h272q-39 -57 -39 -94q0 -32 42.5 -51t123.5 -16z" />
    <glyph glyph-name="tilde" unicode="&#x2dc;" 
d="M457 1188l-199 84q62 159 152.5 237t191.5 78q89 0 182 -65q68 -47 103 -47q36 0 66 28t61 84l198 -84q-62 -159 -152.5 -237t-191.5 -78q-89 0 -182 65q-68 47 -102 47q-36 0 -66 -28t-61 -84z" />
    <glyph glyph-name="hungarumlaut" unicode="&#x2dd;" 
d="M764 1370l-252 -182h-309l282 393l353 -100l67 100l410 -117l-363 -276h-309z" />
    <glyph glyph-name="Omega" unicode="&#x3a9;" horiz-adv-x="1736" 
d="M877 0l202 760h-131l96 358h132q56 212 174.5 301.5t326.5 89.5q147 0 283 -41l-78 -288q-64 22 -127 22q-56 0 -84.5 -20.5t-40.5 -67.5l-2 -8h236l-92 -346h-228l-203 -760h-464zM8 0l203 760h-131l96 358h131q56 211 175 301t327 90q147 0 283 -41l-78 -288
q-64 22 -127 22q-56 0 -84.5 -20.5t-40.5 -67.5l-2 -8h235l-92 -346h-227l-203 -760h-465z" />
    <glyph glyph-name="pi" unicode="&#x3c0;" horiz-adv-x="1699" 
d="M897 -31q-153 0 -290.5 60t-235.5 160.5t-155.5 237.5t-57.5 286v4q0 149 58 286.5t157 238.5t237 161.5t291 60.5t290.5 -60t235.5 -160t155.5 -237t57.5 -286v-4q0 -149 -58 -286.5t-157 -239t-237 -162t-291 -60.5zM897 51q138 0 260.5 53.5t209 143.5t137 212.5
t50.5 256.5v4q0 179 -84.5 330.5t-235 241t-333.5 89.5t-335 -90.5t-237 -243t-85 -331.5v-4q0 -134 50 -256t136 -211t208 -142t259 -53zM590 336v788h354q163 0 257.5 -72t94.5 -210v-4q0 -137 -97 -213t-259 -76h-86v-213h-264zM854 737h70q52 0 82 22.5t30 63.5v4
q0 86 -110 86h-72v-176z" />
    <glyph glyph-name="endash" unicode="&#x2013;" horiz-adv-x="1067" 
d="M47 459l100 372h918l-100 -372h-918z" />
    <glyph glyph-name="emdash" unicode="&#x2014;" horiz-adv-x="1824" 
d="M47 459l100 372h1676l-101 -372h-1675z" />
    <glyph glyph-name="quoteleft" unicode="&#x2018;" horiz-adv-x="583" 
d="M68 625l110 413q27 100 65.5 169.5t103 123t161 82t231.5 35.5l13 -170q-226 -26 -269 -182h187l-127 -471h-475z" />
    <glyph glyph-name="quoteright" unicode="&#x2019;" horiz-adv-x="583" 
d="M94 610l-12 170q224 26 268 183h-186l127 471h475l-111 -414q-28 -100 -66.5 -169t-102.5 -123t-160.5 -82.5t-231.5 -35.5z" />
    <glyph glyph-name="quotesinglbase" unicode="&#x201a;" horiz-adv-x="583" 
d="M-166 -352l-12 170q225 26 268 182h-186l127 471h475l-111 -414q-28 -100 -66.5 -168.5t-102.5 -122.5t-160.5 -82.5t-231.5 -35.5z" />
    <glyph glyph-name="quotedblleft" unicode="&#x201c;" horiz-adv-x="1142" 
d="M639 623l111 413q22 80 48.5 139t69 109.5t101 83t141 53t190.5 25.5l13 -170q-113 -13 -174.5 -57.5t-83.5 -124.5h176l-127 -471h-465zM70 623l110 413q27 101 64 169.5t99.5 123t157.5 82.5t230 35l12 -170q-113 -13 -174.5 -57.5t-83.5 -124.5h177l-127 -471h-465z
" />
    <glyph glyph-name="quotedblright" unicode="&#x201d;" horiz-adv-x="1142" 
d="M664 610l-13 170q113 13 174.5 58t83.5 125h-176l127 471h465l-111 -414q-22 -80 -49 -138t-69.5 -109.5t-100.5 -84t-140.5 -53t-190.5 -25.5zM94 610l-12 170q113 13 174.5 58t83.5 125h-176l127 471h465l-111 -414q-22 -80 -49 -138t-70 -109t-101 -84t-140.5 -53.5
t-190.5 -25.5z" />
    <glyph glyph-name="quotedblbase" unicode="&#x201e;" horiz-adv-x="1142" 
d="M403 -352l-12 170q113 13 174.5 57.5t83.5 124.5h-176l127 471h465l-111 -414q-28 -101 -65 -169t-99.5 -122.5t-157 -82.5t-229.5 -35zM-166 -352l-12 170q113 13 174.5 57.5t83.5 124.5h-176l127 471h465l-111 -414q-28 -101 -65 -169t-99.5 -122.5t-157 -82.5
t-229.5 -35z" />
    <glyph glyph-name="dagger" unicode="&#x2020;" horiz-adv-x="843" 
d="M268 426l170 553l-274 -31l67 252l256 -31l33 265h271l-107 -265l272 31l-67 -252l-258 31l-129 -553h-234z" />
    <glyph glyph-name="daggerdbl" unicode="&#x2021;" horiz-adv-x="884" 
d="M156 0l106 264l-270 -31l67 252l260 -30l37 262l107 262l-281 -31l68 252l258 -31l33 265h270l-106 -265l270 31l-68 -252l-260 31l-37 -262l-106 -262l280 30l-67 -252l-258 31l-33 -264h-270z" />
    <glyph glyph-name="bullet" unicode="&#x2022;" horiz-adv-x="1028" 
d="M504 328q-145 0 -228 87.5t-83 225.5q0 115 50.5 222.5t148.5 179t220 71.5q145 0 228.5 -87.5t83.5 -225.5q0 -85 -30.5 -169.5t-83.5 -152t-133.5 -109.5t-172.5 -42z" />
    <glyph glyph-name="ellipsis" unicode="&#x2026;" horiz-adv-x="1730" 
d="M1055 0l125 467h471l-125 -467h-471zM479 0l125 467h471l-125 -467h-471zM-96 0l125 467h471l-125 -467h-471z" />
    <glyph glyph-name="perthousand" unicode="&#x2030;" horiz-adv-x="2885" 
d="M522 645q-177 0 -272.5 98t-95.5 252q0 87 31.5 169.5t86.5 147.5t137.5 104.5t176.5 39.5q177 0 272.5 -98t95.5 -252q0 -87 -31.5 -169.5t-86.5 -147.5t-137.5 -104.5t-176.5 -39.5zM154 0l1445 1434h310l-1446 -1434h-309zM2384 -23q-177 0 -273 98.5t-96 252.5
q0 87 31.5 169.5t86.5 147t137.5 104t176.5 39.5q177 0 273 -98t96 -252q0 -87 -31.5 -169.5t-86.5 -147.5t-137.5 -104.5t-176.5 -39.5zM1477 -23q-177 0 -273 98.5t-96 252.5q0 87 31.5 169.5t86.5 147t137.5 104t176.5 39.5q177 0 273 -98t96 -252q0 -87 -31.5 -169.5
t-86.5 -147.5t-137.5 -104.5t-176.5 -39.5zM530 893q65 0 107.5 60.5t42.5 140.5q0 49 -28 81.5t-74 32.5q-65 0 -107.5 -60t-42.5 -140q0 -49 28 -82t74 -33zM2392 225q65 0 107.5 60.5t42.5 140.5q0 49 -28.5 82t-74.5 33q-65 0 -107 -60.5t-42 -140.5q0 -49 28 -82
t74 -33zM1485 225q65 0 107 60.5t42 140.5q0 49 -28 82t-74 33q-65 0 -107.5 -60.5t-42.5 -140.5q0 -49 28.5 -82t74.5 -33z" />
    <glyph glyph-name="guilsinglleft" unicode="&#x2039;" horiz-adv-x="698" 
d="M231 41l-211 438l50 180l407 402l250 -227l-330 -320l162 -328z" />
    <glyph glyph-name="guilsinglright" unicode="&#x203a;" horiz-adv-x="698" 
d="M215 41l-250 227l330 320l-162 327l328 146l211 -438l-49 -181z" />
    <glyph glyph-name="fraction" unicode="&#x2044;" horiz-adv-x="1171" 
d="M-291 -201l1421 1753h373l-1421 -1753h-373z" />
    <glyph glyph-name="trademark" unicode="&#x2122;" horiz-adv-x="1413" 
d="M715 803l168 631h209l75 -222l195 222h231l-168 -631h-211l84 313l-206 -225h-2l-84 225l-84 -313h-207zM252 803l121 450h-187l47 181h582l-47 -181h-186l-121 -450h-209z" />
    <glyph glyph-name="radical" unicode="&#x221a;" horiz-adv-x="2353" 
d="M877 0l202 760h-131l96 358h132q56 212 174.5 301.5t326.5 89.5q147 0 283 -41l-78 -288q-64 22 -127 22q-56 0 -84.5 -20.5t-40.5 -67.5l-2 -8h236l-92 -346h-228l-203 -760h-464zM8 0l203 760h-131l96 358h131q56 211 175 301t327 90q147 0 283 -41l-78 -288
q-64 22 -127 22q-56 0 -84.5 -20.5t-40.5 -67.5l-2 -8h235l-92 -346h-227l-203 -760h-465zM1663 0l401 1495h465l-401 -1495h-465z" />
    <glyph glyph-name="approxequal" unicode="&#x2248;" horiz-adv-x="2353" 
d="M1976 1198l80 297h481l-79 -297h-482zM877 0l202 760h-131l96 358h132q56 212 174.5 301.5t326.5 89.5q147 0 283 -41l-78 -288q-64 22 -127 22q-56 0 -84.5 -20.5t-40.5 -67.5l-2 -8h236l-92 -346h-228l-203 -760h-464zM8 0l203 760h-131l96 358h131q56 211 175 301
t327 90q147 0 283 -41l-78 -288q-64 22 -127 22q-56 0 -84.5 -20.5t-40.5 -67.5l-2 -8h235l-92 -346h-227l-203 -760h-465zM1663 0l299 1118h465l-299 -1118h-465z" />
    <glyph glyph-name="apple" unicode="&#xf8ff;" horiz-adv-x="1980" 
d="M1778 0h-1571v1536h1571v-1536zM1759 -213h-12l-6 41l-21 -43h-4l-20 43l-6 -41h-13l13 70h2l26 -54l27 54h2zM1651 -178q0 -15 -10 -26t-25 -11t-25 10.5t-10 24.5q0 16 10 26.5t27 10.5q13 0 23 -10.5t10 -24.5zM1552 -197l-2 -12q-6 -6 -20 -6q-17 0 -27 10t-10 25
t11 26t26 11q11 0 22 -7l-4 -10q-6 6 -18 6q-9 0 -17 -7t-8 -17q0 -13 8 -20t19 -7q8 0 20 8zM1438 -145l-27 -39v-29h-12v29l-29 39l12 2l23 -31l18 29h15zM1343 -213h-12v31h-33v-31h-12v68h12v-27h33v27h12v-68zM1253 -168q0 -25 -34 -25v-20h-13v68q47 5 47 -23z
M1180 -213h-13l-8 16h-29l-6 -16h-12l31 70h4zM1094 -213h-15l-16 23h-10v-23h-13v68q47 5 47 -21q0 -13 -14 -20zM1006 -207q-12 -8 -27 -8t-26 10t-11 25t11 26t28 11q11 0 25 -9l-5 -10q-8 8 -22 8q-11 0 -18 -7t-7 -19q0 -10 8 -17.5t19 -7.5q4 0 12 4v15h-18v10h31v-31
zM915 -178q0 -15 -9.5 -26t-24.5 -11t-25 10.5t-10 24.5q0 16 10 26.5t27 10.5q13 0 22.5 -10.5t9.5 -24.5zM819 -168q0 -25 -35 -25v-20h-12v68q47 5 47 -23zM745 -145l-26 -39v-29h-12v29l-29 39l12 2l23 -31l18 29h14zM662 -145v-11h-25v-57h-12v57h-25v11h62zM547 -145
l-25 -70h-2l-22 47l-21 -47h-2l-24 70l12 2l14 -47l21 47h2l20 -47l15 45h12zM432 -145l-24 -70h-2l-23 47l-21 -47h-2l-24 70l12 2l14 -47l21 47h2l21 -47l14 45h12zM317 -145l-24 -70h-2l-23 47l-20 -47h-2l-25 70l12 2l15 -47l20 47h2l21 -47l14 45h12zM1466 -207
q0 -8 -8 -8t-8 8t8 8t8 -8zM582 -207q0 -8 -9 -8q-8 0 -8 8t8 8q9 0 9 -8zM1145 1405q0 17 -2 25q-6 -3 -35 -3q-28 0 -37 3l-2 -25h4q9 18 21 18q6 0 6 -6v-47q0 -5 -2.5 -7.5t-5.5 -2.5h-2v-4h34v4h-2q-3 -1 -5.5 2t-2.5 8v47q0 6 6 6t11.5 -4.5t7.5 -8.5l2 -5h4z
M1032 1356v4q-12 -2 -12 10v43q0 5 3 7.5t6 2.5h3v4h-37v-2v-2q11 2 11 -10v-18h-35v18q0 5 2.5 7.5t4.5 2.5h3v2v2h-35v-4l2 1q3 0 5.5 -3t2.5 -8v-43l-10 -10v-4h35v4q-10 0 -10 10v21h35v-21q0 -5 -3 -7.5t-5 -2.5h-3v-4h37zM899 1360h-3q-2 -1 -4.5 2t-2.5 8v43
q0 5 2.5 7.5t4.5 2.5h3v4h-59l-4 -20l4 -2q6 16 18 16h8q8 0 8 -6v-20h-8q-5 0 -8 2.5t-4 4.5v3h-4v-27h4q0 13 12 13h8v-23q0 -6 -8 -6h-8q-6 0 -11 4.5t-7 9.5l-2 4l-4 -2l4 -22h61v4zM1694 1266v12h-1403v-12h1403zM1425 1106q0 31 -23 54.5t-52 23.5q-17 0 -32 -11.5
t-15 -33.5q0 -32 22.5 -55t52.5 -23q17 0 32 11.5t15 33.5zM1206 1100q0 26 -28 35q10 7 10 18t-11 21t-32 10q-12 0 -19.5 -7t-7.5 -16q0 -12 10 -12q9 0 9 6q0 4 -3.5 6.5t-3.5 5.5q0 11 15 11q20 0 20 -25q0 -8 -4 -12q-33 4 -33 -13q0 -4 5.5 -8t11.5 -4q12 0 22 10
q13 -10 13 -30q0 -13 -7 -21t-18 -8q-10 0 -17.5 5t-7.5 13q0 7 7 7q1 0 4 -2.5t6 -2.5q8 0 8 11q0 10 -14 10q-7 0 -13 -6.5t-6 -14.5q0 -11 10 -18.5t23 -7.5q25 0 38 11.5t13 27.5zM604 1100q0 25 -29 35q11 7 11 18t-11 21t-32 10q-12 0 -19.5 -7t-7.5 -16q0 -12 10 -12
q9 0 9 6q0 4 -3.5 6.5t-3.5 5.5q0 11 15 11q20 0 20 -25q0 -8 -4 -12q-33 4 -33 -13q0 -4 5.5 -8t11.5 -4q12 0 22 10q13 -10 13 -30q0 -13 -7 -21t-18 -8q-10 0 -17.5 5t-7.5 13q0 7 7 7q1 0 4 -2.5t6 -2.5q8 0 8 11q0 10 -14 10q-7 0 -13 -6.5t-6 -14.5q0 -11 10 -18.5
t23 -7.5q25 0 38 11.5t13 27.5zM1679 1069q-16 -2 -20 16l-14 72q-2 8 1.5 12.5t7.5 4.5h5l-2 6h-58l3 -6q14 1 18 -17l6 -31h-49l-6 31q-2 8 1.5 12.5t7.5 4.5h5l-2 6h-59l2 -6q16 1 20 -17l15 -72q2 -8 -2 -12t-9 -4h-4l2 -6h60l-2 6q-17 -2 -21 16l-6 33h49l6 -33
q2 -8 -1.5 -12t-8.5 -4h-4l2 -6h59zM1020 1063l-2 6q-17 -2 -21 16l-14 72q-2 8 1.5 12.5t7.5 4.5h5l-2 6h-92v-35h8q0 3 0.5 7.5t7 11.5t19.5 7h8q10 0 12 -12l7 -33h-9q-8 0 -14 5t-8 9l-2 5h-6l10 -47h6q-2 22 16 22h9l6 -35q2 -8 -2 -12t-9 -4h-4l3 -6h59zM414 1069
q-17 -2 -21 16l-14 72q-2 8 1.5 12.5t7.5 4.5h5l-2 6h-55q-41 0 -41 -31q0 -12 11.5 -20.5t27.5 -10.5l-19 -33q-4 -8 -11 -12t-12 -4h-5l2 -6h39l24 47q3 6 10 6l7 -31q2 -8 -2 -12t-9 -4h-4l2 -6h60zM819 1067q0 5 -7 11t-19 7q-6 4 -9 21t-5 34t-13 30.5t-33 13.5
q-10 0 -18 -7t-8 -14q0 -10 10 -10q8 0 8 12q0 13 10 13q11 0 14.5 -16t8.5 -40t20 -37q-16 0 -29 -13t-18 -13q-10 0 -10 8q0 3 2 5.5t2 4.5q0 10 -10 10t-10 -14q0 -9 9.5 -16.5t20.5 -7.5q20 0 30.5 13t20.5 13q7 -14 25 -14q8 0 8 6zM1694 973v12h-1403v-12h1403z
M1694 774v127h-301v-127h73v57h23v-133h-29v-67h166v67h-29v133h23v-57h74zM1327 831v70h-166v-70h23l-31 -47l-31 47h21v70h-127v-70h24l76 -94v-39h-29v-67h166v67h-30v41l75 92h29zM938 631v67h-29v133h29v70h-197q-43 0 -69.5 -23.5t-26.5 -58.5q0 -36 26 -59t70 -23h62
v-39h-31v-67h166zM580 631v67h-29v133h29v70h-289v-127h84v57h67v-40h-49v-50h49v-43h-67v58h-84v-125h289zM1694 555v12h-1403v-12h1403zM1491 393q0 31 -23.5 54.5t-52.5 23.5q-17 0 -32 -11.5t-15 -33.5q0 -32 23 -55t53 -23q17 0 32 11.5t15 33.5zM416 444
q-15 27 -37 27q-32 0 -29 -47q-14 47 -43 47q-10 0 -17 -7t-7 -18l6 -2q0 13 16 13q33 0 49 -68q3 -17 0.5 -23.5t-7.5 -7.5h-5l2 -8h57l-2 8q-14 -4 -20 19q-10 33 -10 51q0 27 18 27q10 0 25 -15zM1686 350l-3 6q-16 -1 -20 17l-14 71q-2 8 1.5 12t7.5 4l5 1l-2 6h-92v-35
h8q0 3 0.5 7.5t7 12t19.5 7.5h8q9 0 12 -13l6 -32h-8q-8 0 -14 4.5t-8 9.5l-3 4h-6l11 -47h6q-2 23 16 23h8l6 -35q2 -8 -1.5 -12.5t-8.5 -4.5h-4l2 -6h60zM1272 461l-2 6h-60l2 -6q17 1 21 -19l10 -43q6 -20 2 -30.5t-24 -10.5q-30 0 -41 45l-9 39q-2 10 2 15t9 5l4 -1v6
h-49l2 -6q18 1 22 -19l8 -39q4 -21 18.5 -38t39.5 -17q22 0 32 8.5t9 19t-2 21.5l-11 45q-3 10 1.5 15t9.5 5zM1069 356q-12 1 -18 21l-15 65q-2 9 2.5 13.5t9.5 4.5l5 1l-2 6h-29l-59 -86l-11 61q-2 8 2 13t8 5l5 1l-2 6h-43l2 -6q14 -1 18 -19l16 -92l7 -2l61 90l12 -61
q2 -10 -1 -15.5t-7 -5.5h-4l2 -6h43zM848 350l-2 8q-15 -4 -21 19l-16 63q-6 18 16 21l-2 6h-61q-21 0 -36 -11.5t-15 -33.5q0 -31 21.5 -51.5t49.5 -20.5h66zM627 356q-17 -1 -21 17l-14 71q-2 8 1.5 12t8.5 4l4 1l-2 6h-55q-41 0 -41 -31q0 -12 11.5 -20t27.5 -10l-19 -33
q-4 -8 -11 -12.5t-12 -4.5h-5l2 -6h39l24 47q3 6 10 6l7 -30q2 -8 -2 -12.5t-8 -4.5h-5l2 -6h60zM1694 260v12h-1403v-12h1403zM1421 94v4q-12 3 -12 11v41q0 3 3 6t6 4l3 2v4h-20l-49 -53v37q0 4 3 7t6 4l3 1v4h-31v-4q13 -2 13 -12v-58h6l51 58v-41q0 -4 -2.5 -6.5
t-4.5 -3.5l-3 -1v-4h28zM1296 98h-2.5t-4.5 3t-3 8v43q0 5 2.5 7.5t5.5 2.5h2v4h-59l-4 -21l4 -2q6 17 18 17h9q8 0 8 -6v-21h-8q-5 0 -8.5 2.5t-3.5 4.5l-1 3h-4v-26h4q1 12 13 12h8v-23q0 -6 -8 -6h-9q-6 0 -11 5t-7 9l-2 5l-4 -2l4 -23h61v4zM1194 166h-31v-4q1 0 2 -0.5
t3 -3t-1 -6.5l-18 -39l-10 20l8 17q2 4 5 7t5 4l2 1v4h-53l2 -4q6 0 14 -12l6 -11l-14 -26l-16 37q-2 5 -1 7.5t3 3.5l2 1v4h-27v-4q8 -2 12 -12l27 -56h2q2 -2 2 0l17 33l18 -33h2l25 56q3 5 6.5 8t5.5 4h2v4zM983 162v4h-31v-4l2 -10l-12 -19l-12 19q-2 5 -1 7t4 3h3v4
h-31v-4q11 0 17 -10l16 -25v-16q0 -5 -2.5 -8.5t-5.5 -4.5h-2v-4h35v4q-11 1 -11 13v16l17 25q2 3 4 5t3.5 3t3 1.5t2.5 0.5h1zM870 131q0 16 -11 26.5t-30 10.5t-30 -10.5t-11 -26.5t11 -27.5t30 -11.5t30 11.5t11 27.5zM745 94v4q-10 1 -10 11v41q0 5 2.5 8t4.5 4h3v4h-36
q-12 0 -19.5 -5.5t-7.5 -13.5q0 -11 18 -18l-14 -20q-4 -4 -8 -7t-6 -4h-2v-4h22l15 25q6 8 14 8v-18q0 -4 -2.5 -7t-4.5 -4h-3v-4h34zM633 94v4q-12 3 -12 13v41l12 10v4h-37v-4q12 0 12 -10v-19q-4 0 -8 4l-16 17q-3 3 -2.5 5t2.5 3h2v4h-29v-4q10 -2 16 -8l21 -19
l-27 -26l-14 -11v-4h35v4q-1 0 -2.5 0.5t-4 3t2.5 7.5l16 16q4 4 8 4v-18q0 -5 -3 -8.5t-6 -4.5h-3v-4h37zM1241 -170q0 17 -22 14v-26q22 0 22 12zM1075 -168q0 16 -22 12v-24q22 -2 22 12zM807 -170q0 17 -23 14v-26q23 0 23 12zM1155 -188l-10 24l-10 -24h20zM1638 -180
q0 26 -22 26q-9 0 -16 -7t-7 -17q0 -12 7 -19.5t16 -7.5t15.5 7.5t6.5 17.5zM903 -180q0 26 -22 26q-9 0 -16 -7t-7 -17q0 -12 7 -19.5t16 -7.5t15.5 7.5t6.5 17.5zM360 1122h-10q-16 0 -23.5 10t-7.5 21q0 18 17 18q16 0 18 -10zM1159 1133q-6 -9 -14 -9t-8 4q0 7 8 7
q10 0 14 -2zM557 1133q-6 -9 -14 -9t-8 4q0 7 8 7q10 0 14 -2zM1401 1096q0 -27 -23 -27q-19 0 -35 24t-16 54q0 29 23 29q19 0 35 -24t16 -56zM803 786h-23q-26 0 -26 23q0 22 26 22h23v-45zM573 410h-10q-16 0 -23.5 9.5t-7.5 20.5q0 19 17 19q15 0 18 -10zM1466 383
q0 -27 -22 -27q-19 0 -35 24t-16 54q0 29 22 29q19 0 35 -24t16 -56zM805 373q0 -15 -8 -15h-11q-22 0 -37.5 20t-15.5 46q0 35 29 35h12q8 -2 12 -15zM1133 162q9 0 0 -19q-11 19 0 19zM721 131h-6q-17 0 -17 16q0 13 15 13q8 0 8 -8v-21zM854 131q0 -35 -25 -35
q-24 0 -24 35q0 33 24 33q25 0 25 -33z" />
    <glyph glyph-name="fi" unicode="&#xfb01;" horiz-adv-x="1484" 
d="M1108 1198l80 297h481l-80 -297h-481zM8 0l203 760h-131l96 358h131q56 211 175 301t327 90q147 0 283 -41l-78 -288q-64 22 -127 22q-56 0 -84.5 -20.5t-40.5 -67.5l-2 -8h235l-92 -346h-227l-203 -760h-465zM795 0l299 1118h465l-299 -1118h-465z" />
    <glyph glyph-name="fl" unicode="&#xfb02;" horiz-adv-x="1484" 
d="M8 0l203 760h-131l96 358h131q56 211 175 301t327 90q147 0 283 -41l-78 -288q-64 22 -127 22q-56 0 -84.5 -20.5t-40.5 -67.5l-2 -8h235l-92 -346h-227l-203 -760h-465zM795 0l401 1495h465l-401 -1495h-465z" />
    <glyph glyph-name="NUL" horiz-adv-x="0" 
 />
    </font>
</defs>
</svg>
